<mxfile host="app.diagrams.net" agent="Mozilla/5.0 (Windows NT 10.0; Win64; x64) AppleWebKit/537.36 (KHTML, like Gecko) Chrome/141.0.0.0 Safari/537.36 Edg/141.0.0.0" version="28.2.5">
  <diagram name="PÃ¡gina-1" id="2PMUbhOFpjvYIZgnWK3D">
    <mxGraphModel dx="2161" dy="2399" grid="1" gridSize="10" guides="1" tooltips="1" connect="1" arrows="1" fold="1" page="1" pageScale="1" pageWidth="827" pageHeight="1169" math="0" shadow="0">
      <root>
        <mxCell id="0" />
        <mxCell id="1" parent="0" />
        <mxCell id="x1qT8_1FQU6NpwxY2eX7-1" value="VIVERO" style="rounded=0;whiteSpace=wrap;html=1;strokeColor=light-dark(#000000,#000000);fontColor=light-dark(#000000,#000000);fillColor=light-dark(#FF99FF,#FF99FF);fontStyle=1" vertex="1" parent="1">
          <mxGeometry x="885" y="290" width="120" height="60" as="geometry" />
        </mxCell>
        <mxCell id="x1qT8_1FQU6NpwxY2eX7-2" value="&lt;div&gt;id_vivero&lt;/div&gt;&lt;div&gt;(CP)&lt;/div&gt;" style="ellipse;whiteSpace=wrap;html=1;aspect=fixed;fontStyle=1;gradientColor=none;fillColor=light-dark(#FF00FF,#FF00FF);strokeColor=light-dark(#000000,#000000);fontColor=light-dark(#000000,#000000);" vertex="1" parent="1">
          <mxGeometry x="720" y="390" width="90" height="90" as="geometry" />
        </mxCell>
        <mxCell id="x1qT8_1FQU6NpwxY2eX7-3" value="nombre" style="ellipse;whiteSpace=wrap;html=1;aspect=fixed;strokeColor=light-dark(#000000,#000000);fontColor=light-dark(#000000,#000000);fillColor=light-dark(#FF99FF,#FF99FF);fontStyle=1" vertex="1" parent="1">
          <mxGeometry x="810" y="390" width="90" height="90" as="geometry" />
        </mxCell>
        <mxCell id="x1qT8_1FQU6NpwxY2eX7-4" value="direccion" style="ellipse;whiteSpace=wrap;html=1;aspect=fixed;strokeColor=light-dark(#000000,#000000);fontColor=light-dark(#000000,#000000);fillColor=light-dark(#FF99FF,#FF99FF);fontStyle=1" vertex="1" parent="1">
          <mxGeometry x="900" y="390" width="90" height="90" as="geometry" />
        </mxCell>
        <mxCell id="x1qT8_1FQU6NpwxY2eX7-5" value="&lt;div&gt;latitud&lt;/div&gt;" style="ellipse;whiteSpace=wrap;html=1;aspect=fixed;strokeColor=light-dark(#000000,#000000);fontColor=light-dark(#000000,#000000);fillColor=light-dark(#FF99FF,#FF99FF);fontStyle=1" vertex="1" parent="1">
          <mxGeometry x="990" y="390" width="90" height="90" as="geometry" />
        </mxCell>
        <mxCell id="x1qT8_1FQU6NpwxY2eX7-6" value="longitud" style="ellipse;whiteSpace=wrap;html=1;aspect=fixed;strokeColor=light-dark(#000000,#000000);fontColor=light-dark(#000000,#000000);fillColor=light-dark(#FF99FF,#FF99FF);fontStyle=1" vertex="1" parent="1">
          <mxGeometry x="1080" y="390" width="90" height="90" as="geometry" />
        </mxCell>
        <mxCell id="x1qT8_1FQU6NpwxY2eX7-7" value="&lt;div&gt;id_zona&lt;/div&gt;&lt;div&gt;(id_vivero, codigo_zona)&lt;/div&gt;&lt;div&gt;(CP)&lt;/div&gt;" style="ellipse;whiteSpace=wrap;html=1;aspect=fixed;fontStyle=1;fillColor=light-dark(#FF00FF,#FF00FF);fontColor=light-dark(#000000,#000000);strokeColor=light-dark(#000000,#000000);" vertex="1" parent="1">
          <mxGeometry x="189" y="390" width="90" height="90" as="geometry" />
        </mxCell>
        <mxCell id="x1qT8_1FQU6NpwxY2eX7-8" value="&lt;div&gt;&lt;span style=&quot;background-color: transparent;&quot;&gt;codigo_zona&lt;/span&gt;&lt;/div&gt;" style="ellipse;whiteSpace=wrap;html=1;aspect=fixed;fillColor=light-dark(#FF99FF,#FF99FF);fontColor=light-dark(#000000,#000000);strokeColor=light-dark(#000000,#000000);fontStyle=1" vertex="1" parent="1">
          <mxGeometry x="279" y="390" width="90" height="90" as="geometry" />
        </mxCell>
        <mxCell id="x1qT8_1FQU6NpwxY2eX7-9" value="descripcion" style="ellipse;whiteSpace=wrap;html=1;aspect=fixed;fillColor=light-dark(#FF99FF,#FF99FF);fontColor=light-dark(#000000,#000000);strokeColor=light-dark(#000000,#000000);fontStyle=1" vertex="1" parent="1">
          <mxGeometry x="369" y="390" width="90" height="90" as="geometry" />
        </mxCell>
        <mxCell id="x1qT8_1FQU6NpwxY2eX7-10" value="&lt;div&gt;latitud&lt;/div&gt;" style="ellipse;whiteSpace=wrap;html=1;aspect=fixed;fillColor=light-dark(#FF99FF,#FF99FF);fontColor=light-dark(#000000,#000000);strokeColor=light-dark(#000000,#000000);fontStyle=1" vertex="1" parent="1">
          <mxGeometry x="459" y="390" width="90" height="90" as="geometry" />
        </mxCell>
        <mxCell id="x1qT8_1FQU6NpwxY2eX7-11" value="longitud" style="ellipse;whiteSpace=wrap;html=1;aspect=fixed;strokeColor=light-dark(#000000,#000000);fontColor=light-dark(#000000,#000000);fillColor=light-dark(#FF99FF,#FF99FF);fontStyle=1" vertex="1" parent="1">
          <mxGeometry x="549" y="390" width="90" height="90" as="geometry" />
        </mxCell>
        <mxCell id="x1qT8_1FQU6NpwxY2eX7-12" value="EMPLEADO" style="rounded=0;whiteSpace=wrap;html=1;strokeColor=light-dark(#000000,#000000);fontColor=light-dark(#000000,#000000);fillColor=light-dark(#FF99FF,#FF99FF);fontStyle=1" vertex="1" parent="1">
          <mxGeometry x="1295.25" y="135" width="120" height="60" as="geometry" />
        </mxCell>
        <mxCell id="x1qT8_1FQU6NpwxY2eX7-13" value="&lt;div&gt;id_empleado&lt;/div&gt;&lt;div&gt;(CP)&lt;/div&gt;" style="ellipse;whiteSpace=wrap;html=1;aspect=fixed;fontStyle=1;gradientColor=none;fillColor=light-dark(#FF00FF,#FF00FF);strokeColor=light-dark(#000000,#000000);fontColor=light-dark(#000000,#000000);" vertex="1" parent="1">
          <mxGeometry x="1130.25" width="90" height="90" as="geometry" />
        </mxCell>
        <mxCell id="x1qT8_1FQU6NpwxY2eX7-14" value="apellidos" style="ellipse;whiteSpace=wrap;html=1;aspect=fixed;strokeColor=light-dark(#000000,#000000);fontColor=light-dark(#000000,#000000);fillColor=light-dark(#FF99FF,#FF99FF);fontStyle=1" vertex="1" parent="1">
          <mxGeometry x="1310.25" width="90" height="90" as="geometry" />
        </mxCell>
        <mxCell id="x1qT8_1FQU6NpwxY2eX7-15" value="nombre" style="ellipse;whiteSpace=wrap;html=1;aspect=fixed;strokeColor=light-dark(#000000,#000000);fontColor=light-dark(#000000,#000000);fillColor=light-dark(#FF99FF,#FF99FF);fontStyle=1" vertex="1" parent="1">
          <mxGeometry x="1220.25" width="90" height="90" as="geometry" />
        </mxCell>
        <mxCell id="x1qT8_1FQU6NpwxY2eX7-16" value="dni" style="ellipse;whiteSpace=wrap;html=1;aspect=fixed;strokeColor=light-dark(#000000,#000000);fontColor=light-dark(#000000,#000000);fillColor=light-dark(#FF99FF,#FF99FF);fontStyle=1" vertex="1" parent="1">
          <mxGeometry x="1400.25" width="90" height="90" as="geometry" />
        </mxCell>
        <mxCell id="x1qT8_1FQU6NpwxY2eX7-17" value="&lt;div&gt;fecha_&lt;/div&gt;&lt;div&gt;contratacion&lt;/div&gt;" style="ellipse;whiteSpace=wrap;html=1;aspect=fixed;strokeColor=light-dark(#000000,#000000);fontColor=light-dark(#000000,#000000);fillColor=light-dark(#FF99FF,#FF99FF);fontStyle=1" vertex="1" parent="1">
          <mxGeometry x="1490.25" width="90" height="90" as="geometry" />
        </mxCell>
        <mxCell id="x1qT8_1FQU6NpwxY2eX7-18" value="&lt;div&gt;id_prod_zona&lt;/div&gt;&lt;div&gt;(CP)&lt;/div&gt;" style="ellipse;whiteSpace=wrap;html=1;aspect=fixed;fontStyle=1;fillColor=light-dark(#FF00FF,#FF00FF);fontColor=light-dark(#000000,#000000);strokeColor=light-dark(#000000,#000000);" vertex="1" parent="1">
          <mxGeometry x="-215" y="-115" width="90" height="90" as="geometry" />
        </mxCell>
        <mxCell id="x1qT8_1FQU6NpwxY2eX7-19" value="periodo" style="ellipse;whiteSpace=wrap;html=1;aspect=fixed;labelBackgroundColor=light-dark(#FF99FF,#FF99FF);fillColor=light-dark(#FF99FF,#FF99FF);fontColor=light-dark(#000000,#000000);gradientColor=none;strokeColor=light-dark(#000000,#000000);fontStyle=1" vertex="1" parent="1">
          <mxGeometry x="55" y="-115" width="90" height="90" as="geometry" />
        </mxCell>
        <mxCell id="x1qT8_1FQU6NpwxY2eX7-20" value="&lt;div&gt;&lt;span style=&quot;&quot;&gt;nombre_zona&lt;/span&gt;&lt;/div&gt;&lt;div&gt;&lt;span style=&quot;&quot;&gt;(CF)&lt;/span&gt;&lt;/div&gt;" style="ellipse;whiteSpace=wrap;html=1;aspect=fixed;labelBackgroundColor=light-dark(#FF99FF,#FF99FF);fillColor=light-dark(#FF99FF,#FF99FF);fontColor=light-dark(#000000,#000000);gradientColor=none;strokeColor=light-dark(#000000,#000000);fontStyle=1" vertex="1" parent="1">
          <mxGeometry x="-35" y="-115" width="90" height="90" as="geometry" />
        </mxCell>
        <mxCell id="x1qT8_1FQU6NpwxY2eX7-21" value="id_vivero&lt;div&gt;(CF)&lt;/div&gt;" style="ellipse;whiteSpace=wrap;html=1;aspect=fixed;labelBackgroundColor=light-dark(#FF99FF,#FF99FF);fillColor=light-dark(#FF99FF,#FF99FF);fontColor=light-dark(#000000,#000000);gradientColor=none;strokeColor=light-dark(#000000,#000000);fontStyle=1" vertex="1" parent="1">
          <mxGeometry x="-125" y="-115" width="90" height="90" as="geometry" />
        </mxCell>
        <mxCell id="x1qT8_1FQU6NpwxY2eX7-22" value="ventas_&lt;div&gt;monetarias&lt;/div&gt;" style="ellipse;whiteSpace=wrap;html=1;aspect=fixed;labelBackgroundColor=light-dark(#FF99FF,#FF99FF);fillColor=light-dark(#FF99FF,#FF99FF);fontColor=light-dark(#000000,#000000);gradientColor=none;strokeColor=light-dark(#000000,#000000);fontStyle=1" vertex="1" parent="1">
          <mxGeometry x="145" y="-115" width="90" height="90" as="geometry" />
        </mxCell>
        <mxCell id="x1qT8_1FQU6NpwxY2eX7-23" value="&lt;div&gt;unidades_&lt;/div&gt;&lt;div&gt;vendidas&lt;/div&gt;" style="ellipse;whiteSpace=wrap;html=1;aspect=fixed;labelBackgroundColor=light-dark(#FF99FF,#FF99FF);fillColor=light-dark(#FF99FF,#FF99FF);fontColor=light-dark(#000000,#000000);gradientColor=none;strokeColor=light-dark(#000000,#000000);fontStyle=1" vertex="1" parent="1">
          <mxGeometry x="235" y="-115" width="90" height="90" as="geometry" />
        </mxCell>
        <mxCell id="x1qT8_1FQU6NpwxY2eX7-24" value="PEDIDO" style="rounded=0;whiteSpace=wrap;html=1;strokeColor=light-dark(#000000,#000000);fontColor=light-dark(#000000,#000000);fillColor=light-dark(#FF99FF,#FF99FF);fontStyle=1" vertex="1" parent="1">
          <mxGeometry x="1295.25" y="495" width="120" height="60" as="geometry" />
        </mxCell>
        <mxCell id="x1qT8_1FQU6NpwxY2eX7-25" value="&lt;div&gt;id_pedido&lt;/div&gt;&lt;div&gt;(CP)&lt;/div&gt;" style="ellipse;whiteSpace=wrap;html=1;aspect=fixed;fontStyle=1;gradientColor=none;fillColor=light-dark(#FF00FF,#FF00FF);strokeColor=light-dark(#000000,#000000);fontColor=light-dark(#000000,#000000);" vertex="1" parent="1">
          <mxGeometry x="1490.25" y="300" width="90" height="90" as="geometry" />
        </mxCell>
        <mxCell id="x1qT8_1FQU6NpwxY2eX7-26" value="fecha" style="ellipse;whiteSpace=wrap;html=1;aspect=fixed;strokeColor=light-dark(#000000,#000000);fontColor=light-dark(#000000,#000000);fillColor=light-dark(#FF99FF,#FF99FF);fontStyle=1" vertex="1" parent="1">
          <mxGeometry x="1490.25" y="660" width="90" height="90" as="geometry" />
        </mxCell>
        <mxCell id="x1qT8_1FQU6NpwxY2eX7-27" value="&lt;div&gt;id_cliente&lt;/div&gt;&lt;div&gt;(CF)&lt;/div&gt;" style="ellipse;whiteSpace=wrap;html=1;aspect=fixed;strokeColor=light-dark(#000000,#000000);fontColor=light-dark(#000000,#000000);fillColor=light-dark(#FF99FF,#FF99FF);fontStyle=1" vertex="1" parent="1">
          <mxGeometry x="1490.25" y="390" width="90" height="90" as="geometry" />
        </mxCell>
        <mxCell id="x1qT8_1FQU6NpwxY2eX7-28" value="total" style="ellipse;whiteSpace=wrap;html=1;aspect=fixed;strokeColor=light-dark(#000000,#000000);fontColor=light-dark(#000000,#000000);fillColor=light-dark(#FF99FF,#FF99FF);fontStyle=1" vertex="1" parent="1">
          <mxGeometry x="1490.25" y="570" width="90" height="90" as="geometry" />
        </mxCell>
        <mxCell id="x1qT8_1FQU6NpwxY2eX7-29" value="&lt;div&gt;id_empleado&lt;/div&gt;&lt;div&gt;_responsable (CF)&lt;/div&gt;" style="ellipse;whiteSpace=wrap;html=1;aspect=fixed;strokeColor=light-dark(#000000,#000000);fontColor=light-dark(#000000,#000000);fillColor=light-dark(#FF99FF,#FF99FF);fontStyle=1" vertex="1" parent="1">
          <mxGeometry x="1490.25" y="480" width="90" height="90" as="geometry" />
        </mxCell>
        <mxCell id="x1qT8_1FQU6NpwxY2eX7-30" value="CLIENTE" style="rounded=0;whiteSpace=wrap;html=1;strokeColor=light-dark(#000000,#000000);fontColor=light-dark(#000000,#000000);fillColor=light-dark(#FF99FF,#FF99FF);fontStyle=1" vertex="1" parent="1">
          <mxGeometry x="1295.25" y="955" width="120" height="60" as="geometry" />
        </mxCell>
        <mxCell id="x1qT8_1FQU6NpwxY2eX7-31" value="&lt;div&gt;id_cliente&lt;/div&gt;&lt;div&gt;(CP)&lt;/div&gt;" style="ellipse;whiteSpace=wrap;html=1;aspect=fixed;fontStyle=1;gradientColor=none;fillColor=light-dark(#FF00FF,#FF99FF);strokeColor=light-dark(#000000,#000000);fontColor=light-dark(#000000,#000000);" vertex="1" parent="1">
          <mxGeometry x="995" y="1055" width="90" height="90" as="geometry" />
        </mxCell>
        <mxCell id="x1qT8_1FQU6NpwxY2eX7-32" value="email" style="ellipse;whiteSpace=wrap;html=1;aspect=fixed;strokeColor=light-dark(#000000,#000000);fontColor=light-dark(#000000,#000000);fillColor=light-dark(#FF99FF,#FF99FF);fontStyle=1" vertex="1" parent="1">
          <mxGeometry x="1265.5" y="1055" width="90" height="90" as="geometry" />
        </mxCell>
        <mxCell id="x1qT8_1FQU6NpwxY2eX7-33" value="nombre" style="ellipse;whiteSpace=wrap;html=1;aspect=fixed;strokeColor=light-dark(#000000,#000000);fontColor=light-dark(#000000,#000000);fillColor=light-dark(#FF99FF,#FF99FF);fontStyle=1" vertex="1" parent="1">
          <mxGeometry x="1085" y="1055" width="90" height="90" as="geometry" />
        </mxCell>
        <mxCell id="x1qT8_1FQU6NpwxY2eX7-34" value="telÃ©fono" style="ellipse;whiteSpace=wrap;html=1;aspect=fixed;strokeColor=light-dark(#000000,#000000);fontColor=light-dark(#000000,#000000);fillColor=light-dark(#FF99FF,#FF99FF);fontStyle=1" vertex="1" parent="1">
          <mxGeometry x="1355.5" y="1055" width="90" height="90" as="geometry" />
        </mxCell>
        <mxCell id="x1qT8_1FQU6NpwxY2eX7-35" value="fecha_&lt;div&gt;ingreso_plus&lt;/div&gt;" style="ellipse;whiteSpace=wrap;html=1;aspect=fixed;strokeColor=light-dark(#000000,#000000);fontColor=light-dark(#000000,#000000);fillColor=light-dark(#FF99FF,#FF99FF);fontStyle=1" vertex="1" parent="1">
          <mxGeometry x="1535.5" y="1055" width="90" height="90" as="geometry" />
        </mxCell>
        <mxCell id="x1qT8_1FQU6NpwxY2eX7-36" value="PRODUCTO" style="rounded=0;whiteSpace=wrap;html=1;fillColor=light-dark(#FF99FF,#FF99FF);fontColor=light-dark(#000000,#000000);strokeColor=light-dark(#000000,#000000);fontStyle=1" vertex="1" parent="1">
          <mxGeometry x="-5" y="508.75" width="120" height="60" as="geometry" />
        </mxCell>
        <mxCell id="x1qT8_1FQU6NpwxY2eX7-37" value="&lt;div&gt;id_producto&lt;/div&gt;&lt;div&gt;(CP)&lt;/div&gt;" style="ellipse;whiteSpace=wrap;html=1;aspect=fixed;fontStyle=1;fillColor=light-dark(#FF00FF,#FF00FF);fontColor=light-dark(#000000,#000000);strokeColor=light-dark(#000000,#000000);" vertex="1" parent="1">
          <mxGeometry x="-170" y="610" width="90" height="90" as="geometry" />
        </mxCell>
        <mxCell id="x1qT8_1FQU6NpwxY2eX7-38" value="nombre" style="ellipse;whiteSpace=wrap;html=1;aspect=fixed;fillColor=light-dark(#FF99FF,#FF99FF);fontColor=light-dark(#000000,#000000);strokeColor=light-dark(#000000,#000000);fontStyle=1" vertex="1" parent="1">
          <mxGeometry x="-80" y="610" width="90" height="90" as="geometry" />
        </mxCell>
        <mxCell id="x1qT8_1FQU6NpwxY2eX7-39" value="descripcion" style="ellipse;whiteSpace=wrap;html=1;aspect=fixed;fillColor=light-dark(#FF99FF,#FF99FF);fontColor=light-dark(#000000,#000000);strokeColor=light-dark(#000000,#000000);fontStyle=1" vertex="1" parent="1">
          <mxGeometry x="10" y="610" width="90" height="90" as="geometry" />
        </mxCell>
        <mxCell id="x1qT8_1FQU6NpwxY2eX7-40" value="&lt;div&gt;tipo&lt;/div&gt;" style="ellipse;whiteSpace=wrap;html=1;aspect=fixed;fillColor=light-dark(#FF99FF,#FF99FF);fontColor=light-dark(#000000,#000000);strokeColor=light-dark(#000000,#000000);fontStyle=1" vertex="1" parent="1">
          <mxGeometry x="100" y="610" width="90" height="90" as="geometry" />
        </mxCell>
        <mxCell id="x1qT8_1FQU6NpwxY2eX7-41" value="ZONA" style="shape=process;whiteSpace=wrap;html=1;backgroundOutline=1;fillColor=light-dark(#FF99FF,#FF99FF);fontColor=light-dark(#000000,#000000);strokeColor=light-dark(#000000,#000000);fontStyle=1" vertex="1" parent="1">
          <mxGeometry x="354" y="290" width="120" height="60" as="geometry" />
        </mxCell>
        <mxCell id="x1qT8_1FQU6NpwxY2eX7-42" value="" style="endArrow=none;html=1;rounded=0;fontSize=12;startSize=8;endSize=8;curved=1;exitX=1;exitY=0.5;exitDx=0;exitDy=0;entryX=0;entryY=0.5;entryDx=0;entryDy=0;strokeColor=light-dark(#000000,#000000);fontStyle=1" edge="1" parent="1" source="x1qT8_1FQU6NpwxY2eX7-41" target="x1qT8_1FQU6NpwxY2eX7-46">
          <mxGeometry width="50" height="50" relative="1" as="geometry">
            <mxPoint x="750" y="350" as="sourcePoint" />
            <mxPoint x="640" y="320" as="targetPoint" />
          </mxGeometry>
        </mxCell>
        <mxCell id="x1qT8_1FQU6NpwxY2eX7-43" value="1:1" style="edgeLabel;html=1;align=center;verticalAlign=middle;resizable=0;points=[];fontSize=12;fontStyle=1" vertex="1" connectable="0" parent="x1qT8_1FQU6NpwxY2eX7-42">
          <mxGeometry x="-0.6454" y="-1" relative="1" as="geometry">
            <mxPoint x="371" y="-8" as="offset" />
          </mxGeometry>
        </mxCell>
        <mxCell id="x1qT8_1FQU6NpwxY2eX7-44" value="" style="endArrow=none;html=1;rounded=0;fontSize=12;startSize=8;endSize=8;curved=1;entryX=0;entryY=0.5;entryDx=0;entryDy=0;exitX=1;exitY=0.5;exitDx=0;exitDy=0;strokeColor=light-dark(#000000,#000000);fontStyle=1" edge="1" parent="1" source="x1qT8_1FQU6NpwxY2eX7-46" target="x1qT8_1FQU6NpwxY2eX7-1">
          <mxGeometry width="50" height="50" relative="1" as="geometry">
            <mxPoint x="760" y="320" as="sourcePoint" />
            <mxPoint x="870" y="320" as="targetPoint" />
          </mxGeometry>
        </mxCell>
        <mxCell id="x1qT8_1FQU6NpwxY2eX7-45" value="1:N" style="edgeLabel;html=1;align=center;verticalAlign=middle;resizable=0;points=[];fontSize=12;fontStyle=1" vertex="1" connectable="0" parent="x1qT8_1FQU6NpwxY2eX7-44">
          <mxGeometry x="0.6" y="-3" relative="1" as="geometry">
            <mxPoint x="-368" y="-18" as="offset" />
          </mxGeometry>
        </mxCell>
        <mxCell id="x1qT8_1FQU6NpwxY2eX7-46" value="&lt;div&gt;&lt;span&gt;ID&lt;/span&gt;&lt;/div&gt;&lt;div&gt;&lt;br&gt;&lt;/div&gt;tiene" style="rhombus;whiteSpace=wrap;html=1;fillColor=light-dark(#FFFF99,#FFFF99);fontColor=light-dark(#000000,#000000);strokeColor=light-dark(#000000,#000000);fontStyle=1" vertex="1" parent="1">
          <mxGeometry x="615" y="280" width="130" height="80" as="geometry" />
        </mxCell>
        <mxCell id="x1qT8_1FQU6NpwxY2eX7-47" value="&lt;div&gt;precio_&lt;/div&gt;&lt;div&gt;unitario&lt;/div&gt;" style="ellipse;whiteSpace=wrap;html=1;aspect=fixed;fillColor=light-dark(#FF99FF,#FF99FF);fontColor=light-dark(#000000,#000000);strokeColor=light-dark(#000000,#000000);fontStyle=1" vertex="1" parent="1">
          <mxGeometry x="190" y="610" width="90" height="90" as="geometry" />
        </mxCell>
        <mxCell id="x1qT8_1FQU6NpwxY2eX7-48" value="apellidos" style="ellipse;whiteSpace=wrap;html=1;aspect=fixed;strokeColor=light-dark(#000000,#000000);fontColor=light-dark(#000000,#000000);fillColor=light-dark(#FF99FF,#FF99FF);fontStyle=1" vertex="1" parent="1">
          <mxGeometry x="1175" y="1055" width="90" height="90" as="geometry" />
        </mxCell>
        <mxCell id="x1qT8_1FQU6NpwxY2eX7-49" value="es_tajinaste_&lt;div&gt;plus&lt;/div&gt;" style="ellipse;whiteSpace=wrap;html=1;aspect=fixed;strokeColor=light-dark(#000000,#000000);fontColor=light-dark(#000000,#000000);fillColor=light-dark(#FF99FF,#FF99FF);fontStyle=1" vertex="1" parent="1">
          <mxGeometry x="1445.5" y="1055" width="90" height="90" as="geometry" />
        </mxCell>
        <mxCell id="x1qT8_1FQU6NpwxY2eX7-50" value="&lt;span&gt;incluye&lt;/span&gt;" style="rhombus;whiteSpace=wrap;html=1;fillColor=light-dark(#FFFF99,#FFFF99);fontColor=light-dark(#000000,#000000);strokeColor=light-dark(#000000,#000000);fontStyle=1" vertex="1" parent="1">
          <mxGeometry x="600" y="501.25" width="130" height="80" as="geometry" />
        </mxCell>
        <mxCell id="x1qT8_1FQU6NpwxY2eX7-51" value="" style="endArrow=none;html=1;rounded=0;fontSize=12;startSize=8;endSize=8;curved=1;entryX=1;entryY=0.5;entryDx=0;entryDy=0;exitX=0;exitY=0.5;exitDx=0;exitDy=0;strokeColor=light-dark(#000000,#000000);fontStyle=1" edge="1" parent="1" source="x1qT8_1FQU6NpwxY2eX7-50" target="x1qT8_1FQU6NpwxY2eX7-36">
          <mxGeometry width="50" height="50" relative="1" as="geometry">
            <mxPoint x="390" y="540" as="sourcePoint" />
            <mxPoint x="475" y="670" as="targetPoint" />
          </mxGeometry>
        </mxCell>
        <mxCell id="x1qT8_1FQU6NpwxY2eX7-52" value="1:N" style="edgeLabel;html=1;align=center;verticalAlign=middle;resizable=0;points=[];fontSize=12;fontStyle=1" vertex="1" connectable="0" parent="x1qT8_1FQU6NpwxY2eX7-51">
          <mxGeometry x="0.868" y="2" relative="1" as="geometry">
            <mxPoint x="-1" as="offset" />
          </mxGeometry>
        </mxCell>
        <mxCell id="x1qT8_1FQU6NpwxY2eX7-53" value="" style="endArrow=none;html=1;rounded=0;fontSize=12;startSize=8;endSize=8;curved=1;entryX=0;entryY=0.5;entryDx=0;entryDy=0;exitX=1;exitY=0.5;exitDx=0;exitDy=0;strokeColor=light-dark(#000000,#000000);fontStyle=1" edge="1" parent="1" source="x1qT8_1FQU6NpwxY2eX7-50" target="x1qT8_1FQU6NpwxY2eX7-24">
          <mxGeometry width="50" height="50" relative="1" as="geometry">
            <mxPoint x="650" y="720" as="sourcePoint" />
            <mxPoint x="700" y="670" as="targetPoint" />
          </mxGeometry>
        </mxCell>
        <mxCell id="x1qT8_1FQU6NpwxY2eX7-54" value="0:N" style="edgeLabel;html=1;align=center;verticalAlign=middle;resizable=0;points=[];fontSize=12;fontStyle=1" vertex="1" connectable="0" parent="x1qT8_1FQU6NpwxY2eX7-53">
          <mxGeometry x="0.9345" y="5" relative="1" as="geometry">
            <mxPoint x="-1" as="offset" />
          </mxGeometry>
        </mxCell>
        <mxCell id="x1qT8_1FQU6NpwxY2eX7-55" value="" style="endArrow=none;html=1;rounded=0;fontSize=12;startSize=8;endSize=8;curved=1;entryX=0.5;entryY=1;entryDx=0;entryDy=0;exitX=0.5;exitY=0;exitDx=0;exitDy=0;strokeColor=light-dark(#000000,#000000);fontStyle=1" edge="1" parent="1" source="x1qT8_1FQU6NpwxY2eX7-57" target="x1qT8_1FQU6NpwxY2eX7-50">
          <mxGeometry width="50" height="50" relative="1" as="geometry">
            <mxPoint x="18.25" y="1030" as="sourcePoint" />
            <mxPoint x="79" y="1030" as="targetPoint" />
          </mxGeometry>
        </mxCell>
        <mxCell id="x1qT8_1FQU6NpwxY2eX7-56" value="" style="endArrow=none;html=1;rounded=0;fontSize=12;startSize=8;endSize=8;curved=1;entryX=0.5;entryY=1;entryDx=0;entryDy=0;exitX=0.5;exitY=0;exitDx=0;exitDy=0;strokeColor=light-dark(#000000,#000000);fontStyle=1" edge="1" parent="1" source="x1qT8_1FQU6NpwxY2eX7-58" target="x1qT8_1FQU6NpwxY2eX7-50">
          <mxGeometry width="50" height="50" relative="1" as="geometry">
            <mxPoint x="109" y="1030" as="sourcePoint" />
            <mxPoint x="79" y="1040" as="targetPoint" />
          </mxGeometry>
        </mxCell>
        <mxCell id="x1qT8_1FQU6NpwxY2eX7-57" value="&lt;div&gt;precio_&lt;/div&gt;&lt;div&gt;unitario_&lt;/div&gt;&lt;div&gt;linea&lt;/div&gt;" style="ellipse;whiteSpace=wrap;html=1;aspect=fixed;strokeColor=light-dark(#000000,#000000);fontColor=light-dark(#000000,#000000);fillColor=light-dark(#FF99FF,#FF99FF);fontStyle=1" vertex="1" parent="1">
          <mxGeometry x="549" y="620" width="90" height="90" as="geometry" />
        </mxCell>
        <mxCell id="x1qT8_1FQU6NpwxY2eX7-58" value="cantidad" style="ellipse;whiteSpace=wrap;html=1;aspect=fixed;strokeColor=light-dark(#000000,#000000);fontColor=light-dark(#000000,#000000);fillColor=light-dark(#FF99FF,#FF99FF);fontStyle=1" vertex="1" parent="1">
          <mxGeometry x="690" y="620" width="90" height="90" as="geometry" />
        </mxCell>
        <mxCell id="x1qT8_1FQU6NpwxY2eX7-60" value="&lt;div&gt;id_prod_&lt;/div&gt;&lt;div&gt;empleado&lt;/div&gt;&lt;div&gt;(CP)&lt;/div&gt;" style="ellipse;whiteSpace=wrap;html=1;aspect=fixed;fontStyle=1;gradientColor=none;fillColor=light-dark(#FF00FF,#FF00FF);strokeColor=light-dark(#000000,#000000);fontColor=light-dark(#000000,#000000);" vertex="1" parent="1">
          <mxGeometry x="1611.25" y="285" width="90" height="90" as="geometry" />
        </mxCell>
        <mxCell id="x1qT8_1FQU6NpwxY2eX7-61" value="periodo" style="ellipse;whiteSpace=wrap;html=1;aspect=fixed;strokeColor=light-dark(#000000,#000000);fontColor=light-dark(#000000,#000000);fillColor=light-dark(#FF99FF,#FF99FF);fontStyle=1" vertex="1" parent="1">
          <mxGeometry x="1791.25" y="285" width="90" height="90" as="geometry" />
        </mxCell>
        <mxCell id="x1qT8_1FQU6NpwxY2eX7-62" value="&lt;div&gt;id_empleado&lt;/div&gt;&lt;div&gt;(CF)&lt;/div&gt;" style="ellipse;whiteSpace=wrap;html=1;aspect=fixed;strokeColor=light-dark(#000000,#000000);fontColor=light-dark(#000000,#000000);fillColor=light-dark(#FF99FF,#FF99FF);fontStyle=1" vertex="1" parent="1">
          <mxGeometry x="1701.25" y="285" width="90" height="90" as="geometry" />
        </mxCell>
        <mxCell id="x1qT8_1FQU6NpwxY2eX7-63" value="ventas_&lt;div&gt;monetarias&lt;/div&gt;" style="ellipse;whiteSpace=wrap;html=1;aspect=fixed;strokeColor=light-dark(#000000,#000000);fontColor=light-dark(#000000,#000000);fillColor=light-dark(#FF99FF,#FF99FF);fontStyle=1" vertex="1" parent="1">
          <mxGeometry x="1881.25" y="285" width="90" height="90" as="geometry" />
        </mxCell>
        <mxCell id="x1qT8_1FQU6NpwxY2eX7-64" value="&lt;div&gt;pedidos_&lt;/div&gt;&lt;div&gt;gestionados&lt;/div&gt;" style="ellipse;whiteSpace=wrap;html=1;aspect=fixed;strokeColor=light-dark(#000000,#000000);fontColor=light-dark(#000000,#000000);fillColor=light-dark(#FF99FF,#FF99FF);fontStyle=1" vertex="1" parent="1">
          <mxGeometry x="1971.25" y="285" width="90" height="90" as="geometry" />
        </mxCell>
        <mxCell id="x1qT8_1FQU6NpwxY2eX7-65" value="&lt;div&gt;&lt;span&gt;asigna&lt;/span&gt;&lt;/div&gt;&lt;div&gt;&lt;span&gt;(stock)&lt;/span&gt;&lt;/div&gt;" style="rhombus;whiteSpace=wrap;html=1;fillColor=light-dark(#FFFF99,#FFFF99);fontColor=light-dark(#000000,#000000);strokeColor=light-dark(#000000,#000000);fontStyle=1" vertex="1" parent="1">
          <mxGeometry x="-10" y="280" width="130" height="80" as="geometry" />
        </mxCell>
        <mxCell id="x1qT8_1FQU6NpwxY2eX7-66" value="" style="endArrow=none;html=1;rounded=0;fontSize=12;startSize=8;endSize=8;curved=1;entryX=0.5;entryY=1;entryDx=0;entryDy=0;exitX=0.5;exitY=0;exitDx=0;exitDy=0;strokeColor=light-dark(#000000,#000000);fontStyle=1" edge="1" parent="1" source="x1qT8_1FQU6NpwxY2eX7-36" target="x1qT8_1FQU6NpwxY2eX7-65">
          <mxGeometry width="50" height="50" relative="1" as="geometry">
            <mxPoint x="10" y="580" as="sourcePoint" />
            <mxPoint x="60" y="530" as="targetPoint" />
          </mxGeometry>
        </mxCell>
        <mxCell id="x1qT8_1FQU6NpwxY2eX7-67" value="0:N" style="edgeLabel;html=1;align=center;verticalAlign=middle;resizable=0;points=[];fontSize=12;fontStyle=1" vertex="1" connectable="0" parent="x1qT8_1FQU6NpwxY2eX7-66">
          <mxGeometry x="-0.8451" y="-1" relative="1" as="geometry">
            <mxPoint x="13" y="-6" as="offset" />
          </mxGeometry>
        </mxCell>
        <mxCell id="x1qT8_1FQU6NpwxY2eX7-68" value="" style="endArrow=none;html=1;rounded=0;fontSize=12;startSize=8;endSize=8;curved=1;entryX=1;entryY=0.5;entryDx=0;entryDy=0;exitX=0;exitY=0.5;exitDx=0;exitDy=0;strokeColor=light-dark(#000000,#000000);fontStyle=1" edge="1" parent="1" source="x1qT8_1FQU6NpwxY2eX7-41" target="x1qT8_1FQU6NpwxY2eX7-65">
          <mxGeometry width="50" height="50" relative="1" as="geometry">
            <mxPoint x="-60" y="390" as="sourcePoint" />
            <mxPoint x="118" y="330" as="targetPoint" />
          </mxGeometry>
        </mxCell>
        <mxCell id="x1qT8_1FQU6NpwxY2eX7-69" value="0:N" style="edgeLabel;html=1;align=center;verticalAlign=middle;resizable=0;points=[];fontSize=12;fontStyle=1" vertex="1" connectable="0" parent="x1qT8_1FQU6NpwxY2eX7-68">
          <mxGeometry x="-0.8632" relative="1" as="geometry">
            <mxPoint x="-4" y="-15" as="offset" />
          </mxGeometry>
        </mxCell>
        <mxCell id="x1qT8_1FQU6NpwxY2eX7-70" value="" style="endArrow=none;html=1;rounded=0;fontSize=12;startSize=8;endSize=8;curved=1;entryX=0.5;entryY=0;entryDx=0;entryDy=0;exitX=1;exitY=1;exitDx=0;exitDy=0;strokeColor=light-dark(#000000,#000000);fontStyle=1" edge="1" parent="1" source="x1qT8_1FQU6NpwxY2eX7-72" target="x1qT8_1FQU6NpwxY2eX7-65">
          <mxGeometry width="50" height="50" relative="1" as="geometry">
            <mxPoint x="30" y="250" as="sourcePoint" />
            <mxPoint x="146.5" y="510" as="targetPoint" />
          </mxGeometry>
        </mxCell>
        <mxCell id="x1qT8_1FQU6NpwxY2eX7-71" value="" style="endArrow=none;html=1;rounded=0;fontSize=12;startSize=8;endSize=8;curved=1;entryX=0.5;entryY=0;entryDx=0;entryDy=0;strokeColor=light-dark(#000000,#000000);fontStyle=1" edge="1" parent="1" target="x1qT8_1FQU6NpwxY2eX7-65">
          <mxGeometry width="50" height="50" relative="1" as="geometry">
            <mxPoint x="80" y="250" as="sourcePoint" />
            <mxPoint x="120" y="250" as="targetPoint" />
          </mxGeometry>
        </mxCell>
        <mxCell id="x1qT8_1FQU6NpwxY2eX7-72" value="&lt;div&gt;cantidad_&lt;/div&gt;&lt;div&gt;disponible&lt;/div&gt;" style="ellipse;whiteSpace=wrap;html=1;aspect=fixed;fontColor=light-dark(#000000,#000000);fillColor=light-dark(#FF99FF,#FF99FF);strokeColor=light-dark(#000000,#000000);fontStyle=1" vertex="1" parent="1">
          <mxGeometry x="-50" y="170" width="90" height="90" as="geometry" />
        </mxCell>
        <mxCell id="x1qT8_1FQU6NpwxY2eX7-73" value="fecha_ultima_&lt;div&gt;actualizacion&lt;/div&gt;" style="ellipse;whiteSpace=wrap;html=1;aspect=fixed;fontColor=light-dark(#000000,#000000);fillColor=light-dark(#FF99FF,#FF99FF);strokeColor=light-dark(#000000,#000000);fontStyle=1" vertex="1" parent="1">
          <mxGeometry x="70" y="170" width="90" height="90" as="geometry" />
        </mxCell>
        <mxCell id="x1qT8_1FQU6NpwxY2eX7-74" value="" style="edgeStyle=orthogonalEdgeStyle;rounded=0;orthogonalLoop=1;jettySize=auto;html=1;fontStyle=1" edge="1" parent="1" source="x1qT8_1FQU6NpwxY2eX7-75" target="x1qT8_1FQU6NpwxY2eX7-41">
          <mxGeometry relative="1" as="geometry" />
        </mxCell>
        <mxCell id="x1qT8_1FQU6NpwxY2eX7-75" value="&lt;div&gt;&lt;span&gt;asignacion&lt;/span&gt;&lt;/div&gt;" style="rhombus;whiteSpace=wrap;html=1;fillColor=light-dark(#FFFF99,#FFFF99);fontColor=light-dark(#000000,#000000);strokeColor=light-dark(#000000,#000000);fontStyle=1" vertex="1" parent="1">
          <mxGeometry x="349" y="140" width="130" height="80" as="geometry" />
        </mxCell>
        <mxCell id="x1qT8_1FQU6NpwxY2eX7-76" value="" style="endArrow=none;html=1;rounded=0;fontSize=12;startSize=8;endSize=8;curved=1;entryX=1;entryY=0.5;entryDx=0;entryDy=0;exitX=0;exitY=0.5;exitDx=0;exitDy=0;strokeColor=light-dark(#000000,#000000);fontStyle=1" edge="1" parent="1" source="x1qT8_1FQU6NpwxY2eX7-12" target="x1qT8_1FQU6NpwxY2eX7-75">
          <mxGeometry width="50" height="50" relative="1" as="geometry">
            <mxPoint x="95" y="260" as="sourcePoint" />
            <mxPoint x="70" y="290" as="targetPoint" />
          </mxGeometry>
        </mxCell>
        <mxCell id="x1qT8_1FQU6NpwxY2eX7-77" value="0:N" style="edgeLabel;html=1;align=center;verticalAlign=middle;resizable=0;points=[];fontSize=12;fontStyle=1" vertex="1" connectable="0" parent="x1qT8_1FQU6NpwxY2eX7-76">
          <mxGeometry x="-0.5143" y="1" relative="1" as="geometry">
            <mxPoint x="168" y="-5" as="offset" />
          </mxGeometry>
        </mxCell>
        <mxCell id="x1qT8_1FQU6NpwxY2eX7-78" value="" style="endArrow=none;html=1;rounded=0;fontSize=12;startSize=8;endSize=8;curved=1;entryX=0.5;entryY=0;entryDx=0;entryDy=0;exitX=0.5;exitY=1;exitDx=0;exitDy=0;strokeColor=light-dark(#000000,#000000);fontStyle=1" edge="1" parent="1" source="x1qT8_1FQU6NpwxY2eX7-75" target="x1qT8_1FQU6NpwxY2eX7-41">
          <mxGeometry width="50" height="50" relative="1" as="geometry">
            <mxPoint x="410" y="120" as="sourcePoint" />
            <mxPoint x="410" y="190" as="targetPoint" />
          </mxGeometry>
        </mxCell>
        <mxCell id="x1qT8_1FQU6NpwxY2eX7-79" value="0:N" style="edgeLabel;html=1;align=center;verticalAlign=middle;resizable=0;points=[];fontSize=12;fontStyle=1" vertex="1" connectable="0" parent="x1qT8_1FQU6NpwxY2eX7-78">
          <mxGeometry x="0.6286" y="1" relative="1" as="geometry">
            <mxPoint as="offset" />
          </mxGeometry>
        </mxCell>
        <mxCell id="x1qT8_1FQU6NpwxY2eX7-80" value="&lt;div&gt;fecha_&lt;/div&gt;&lt;div&gt;inicio&lt;/div&gt;" style="ellipse;whiteSpace=wrap;html=1;aspect=fixed;fillColor=light-dark(#FF99FF,#FF99FF);fontColor=light-dark(#000000,#000000);strokeColor=light-dark(#000000,#000000);fontStyle=1" vertex="1" parent="1">
          <mxGeometry x="459" y="30" width="60" height="60" as="geometry" />
        </mxCell>
        <mxCell id="x1qT8_1FQU6NpwxY2eX7-81" value="fecha_&lt;div&gt;fin&lt;/div&gt;" style="ellipse;whiteSpace=wrap;html=1;aspect=fixed;fillColor=light-dark(#FF99FF,#FF99FF);fontColor=light-dark(#000000,#000000);strokeColor=light-dark(#000000,#000000);fontStyle=1" vertex="1" parent="1">
          <mxGeometry x="384" y="30" width="60" height="60" as="geometry" />
        </mxCell>
        <mxCell id="x1qT8_1FQU6NpwxY2eX7-82" value="puesto" style="ellipse;whiteSpace=wrap;html=1;aspect=fixed;fillColor=light-dark(#FF99FF,#FF99FF);fontColor=light-dark(#000000,#000000);strokeColor=light-dark(#000000,#000000);fontStyle=1" vertex="1" parent="1">
          <mxGeometry x="309" y="30" width="60" height="60" as="geometry" />
        </mxCell>
        <mxCell id="x1qT8_1FQU6NpwxY2eX7-83" value="" style="endArrow=none;html=1;rounded=0;fontSize=12;startSize=8;endSize=8;curved=1;entryX=0.5;entryY=1;entryDx=0;entryDy=0;exitX=0.5;exitY=0;exitDx=0;exitDy=0;strokeColor=light-dark(#000000,#000000);fontStyle=1" edge="1" parent="1" source="x1qT8_1FQU6NpwxY2eX7-75" target="x1qT8_1FQU6NpwxY2eX7-80">
          <mxGeometry width="50" height="50" relative="1" as="geometry">
            <mxPoint x="499" y="179" as="sourcePoint" />
            <mxPoint x="639" y="179" as="targetPoint" />
          </mxGeometry>
        </mxCell>
        <mxCell id="x1qT8_1FQU6NpwxY2eX7-84" value="" style="endArrow=none;html=1;rounded=0;fontSize=12;startSize=8;endSize=8;curved=1;entryX=0.5;entryY=1;entryDx=0;entryDy=0;exitX=0.5;exitY=0;exitDx=0;exitDy=0;strokeColor=light-dark(#000000,#000000);fontStyle=1" edge="1" parent="1" source="x1qT8_1FQU6NpwxY2eX7-75" target="x1qT8_1FQU6NpwxY2eX7-81">
          <mxGeometry width="50" height="50" relative="1" as="geometry">
            <mxPoint x="480" y="260" as="sourcePoint" />
            <mxPoint x="526" y="150" as="targetPoint" />
          </mxGeometry>
        </mxCell>
        <mxCell id="x1qT8_1FQU6NpwxY2eX7-85" value="" style="endArrow=none;html=1;rounded=0;fontSize=12;startSize=8;endSize=8;curved=1;entryX=0.5;entryY=1;entryDx=0;entryDy=0;exitX=0.5;exitY=0;exitDx=0;exitDy=0;strokeColor=light-dark(#000000,#000000);fontStyle=1" edge="1" parent="1" source="x1qT8_1FQU6NpwxY2eX7-75" target="x1qT8_1FQU6NpwxY2eX7-82">
          <mxGeometry width="50" height="50" relative="1" as="geometry">
            <mxPoint x="490" y="200" as="sourcePoint" />
            <mxPoint x="536" y="160" as="targetPoint" />
          </mxGeometry>
        </mxCell>
        <mxCell id="x1qT8_1FQU6NpwxY2eX7-86" value="hace" style="rhombus;whiteSpace=wrap;html=1;fillColor=light-dark(#FFFF99,#FFFF99);fontColor=light-dark(#000000,#000000);strokeColor=light-dark(#000000,#000000);fontStyle=1" vertex="1" parent="1">
          <mxGeometry x="1290.25" y="725" width="130" height="80" as="geometry" />
        </mxCell>
        <mxCell id="x1qT8_1FQU6NpwxY2eX7-87" value="" style="endArrow=none;html=1;rounded=0;fontSize=12;startSize=8;endSize=8;curved=1;entryX=0.5;entryY=0;entryDx=0;entryDy=0;exitX=0.5;exitY=1;exitDx=0;exitDy=0;strokeColor=light-dark(#000000,#000000);fontStyle=1" edge="1" parent="1" source="x1qT8_1FQU6NpwxY2eX7-86" target="x1qT8_1FQU6NpwxY2eX7-30">
          <mxGeometry width="50" height="50" relative="1" as="geometry">
            <mxPoint x="1041.5" y="985" as="sourcePoint" />
            <mxPoint x="747.25" y="785" as="targetPoint" />
          </mxGeometry>
        </mxCell>
        <mxCell id="x1qT8_1FQU6NpwxY2eX7-88" value="0:N" style="edgeLabel;html=1;align=center;verticalAlign=middle;resizable=0;points=[];fontSize=12;fontStyle=1" vertex="1" connectable="0" parent="x1qT8_1FQU6NpwxY2eX7-87">
          <mxGeometry x="0.8845" relative="1" as="geometry">
            <mxPoint x="25" y="-377" as="offset" />
          </mxGeometry>
        </mxCell>
        <mxCell id="x1qT8_1FQU6NpwxY2eX7-89" value="" style="endArrow=none;html=1;rounded=0;fontSize=12;startSize=8;endSize=8;curved=1;entryX=0.5;entryY=0;entryDx=0;entryDy=0;exitX=0.5;exitY=1;exitDx=0;exitDy=0;strokeColor=light-dark(#000000,#000000);fontStyle=1" edge="1" parent="1" source="x1qT8_1FQU6NpwxY2eX7-24" target="x1qT8_1FQU6NpwxY2eX7-86">
          <mxGeometry width="50" height="50" relative="1" as="geometry">
            <mxPoint x="1131.25" y="505" as="sourcePoint" />
            <mxPoint x="1402.25" y="515" as="targetPoint" />
          </mxGeometry>
        </mxCell>
        <mxCell id="x1qT8_1FQU6NpwxY2eX7-90" value="1:1" style="edgeLabel;html=1;align=center;verticalAlign=middle;resizable=0;points=[];fontSize=12;fontStyle=1" vertex="1" connectable="0" parent="x1qT8_1FQU6NpwxY2eX7-89">
          <mxGeometry x="-0.8169" y="1" relative="1" as="geometry">
            <mxPoint x="24" y="364" as="offset" />
          </mxGeometry>
        </mxCell>
        <mxCell id="x1qT8_1FQU6NpwxY2eX7-91" value="gestiona" style="rhombus;whiteSpace=wrap;html=1;fillColor=light-dark(#FFFF99,#FFFF99);fontColor=light-dark(#000000,#000000);strokeColor=light-dark(#000000,#000000);fontStyle=1" vertex="1" parent="1">
          <mxGeometry x="1290.25" y="305" width="130" height="80" as="geometry" />
        </mxCell>
        <mxCell id="x1qT8_1FQU6NpwxY2eX7-92" value="" style="endArrow=none;html=1;rounded=0;fontSize=12;startSize=8;endSize=8;curved=1;entryX=0.5;entryY=1;entryDx=0;entryDy=0;exitX=0.5;exitY=0;exitDx=0;exitDy=0;strokeColor=light-dark(#000000,#000000);fontStyle=1" edge="1" parent="1" source="x1qT8_1FQU6NpwxY2eX7-91" target="x1qT8_1FQU6NpwxY2eX7-12">
          <mxGeometry width="50" height="50" relative="1" as="geometry">
            <mxPoint x="391.25" y="675" as="sourcePoint" />
            <mxPoint x="441.25" y="595" as="targetPoint" />
          </mxGeometry>
        </mxCell>
        <mxCell id="x1qT8_1FQU6NpwxY2eX7-93" value="0:N" style="edgeLabel;html=1;align=center;verticalAlign=middle;resizable=0;points=[];fontSize=12;fontStyle=1" vertex="1" connectable="0" parent="x1qT8_1FQU6NpwxY2eX7-92">
          <mxGeometry x="0.6182" y="-1" relative="1" as="geometry">
            <mxPoint x="9" y="264" as="offset" />
          </mxGeometry>
        </mxCell>
        <mxCell id="x1qT8_1FQU6NpwxY2eX7-94" value="" style="endArrow=none;html=1;rounded=0;fontSize=12;startSize=8;endSize=8;curved=1;exitX=0.5;exitY=0;exitDx=0;exitDy=0;entryX=0.5;entryY=1;entryDx=0;entryDy=0;strokeColor=light-dark(#000000,#000000);fontStyle=1" edge="1" parent="1" source="x1qT8_1FQU6NpwxY2eX7-24" target="x1qT8_1FQU6NpwxY2eX7-91">
          <mxGeometry width="50" height="50" relative="1" as="geometry">
            <mxPoint x="1361.25" y="355" as="sourcePoint" />
            <mxPoint x="1471.25" y="405" as="targetPoint" />
          </mxGeometry>
        </mxCell>
        <mxCell id="x1qT8_1FQU6NpwxY2eX7-95" value="1:1" style="edgeLabel;html=1;align=center;verticalAlign=middle;resizable=0;points=[];fontSize=12;fontStyle=1" vertex="1" connectable="0" parent="x1qT8_1FQU6NpwxY2eX7-94">
          <mxGeometry x="-0.5455" y="-5" relative="1" as="geometry">
            <mxPoint x="-5" y="-256" as="offset" />
          </mxGeometry>
        </mxCell>
        <mxCell id="x1qT8_1FQU6NpwxY2eX7-96" value="" style="endArrow=none;html=1;rounded=0;fontSize=12;startSize=8;endSize=8;curved=1;exitX=0.5;exitY=1;exitDx=0;exitDy=0;entryX=0.5;entryY=0;entryDx=0;entryDy=0;strokeColor=light-dark(#000000,#000000);fontStyle=1" edge="1" parent="1" source="x1qT8_1FQU6NpwxY2eX7-18" target="x1qT8_1FQU6NpwxY2eX7-160">
          <mxGeometry width="50" height="50" relative="1" as="geometry">
            <mxPoint x="332.5" y="155" as="sourcePoint" />
            <mxPoint x="62.5" y="25" as="targetPoint" />
          </mxGeometry>
        </mxCell>
        <mxCell id="x1qT8_1FQU6NpwxY2eX7-97" value="" style="endArrow=none;html=1;rounded=0;fontSize=12;startSize=8;endSize=8;curved=1;entryX=0.5;entryY=1;entryDx=0;entryDy=0;exitX=0.5;exitY=0;exitDx=0;exitDy=0;strokeColor=light-dark(#000000,#000000);fontStyle=1" edge="1" parent="1" source="x1qT8_1FQU6NpwxY2eX7-160" target="x1qT8_1FQU6NpwxY2eX7-21">
          <mxGeometry width="50" height="50" relative="1" as="geometry">
            <mxPoint x="62.5" y="25" as="sourcePoint" />
            <mxPoint x="382.5" y="105" as="targetPoint" />
          </mxGeometry>
        </mxCell>
        <mxCell id="x1qT8_1FQU6NpwxY2eX7-98" value="" style="endArrow=none;html=1;rounded=0;fontSize=12;startSize=8;endSize=8;curved=1;exitX=0.5;exitY=1;exitDx=0;exitDy=0;entryX=0.5;entryY=0;entryDx=0;entryDy=0;strokeColor=light-dark(#000000,#000000);fontStyle=1" edge="1" parent="1" source="x1qT8_1FQU6NpwxY2eX7-20" target="x1qT8_1FQU6NpwxY2eX7-160">
          <mxGeometry width="50" height="50" relative="1" as="geometry">
            <mxPoint x="332.5" y="155" as="sourcePoint" />
            <mxPoint x="62.5" y="25" as="targetPoint" />
          </mxGeometry>
        </mxCell>
        <mxCell id="x1qT8_1FQU6NpwxY2eX7-99" value="" style="endArrow=none;html=1;rounded=0;fontSize=12;startSize=8;endSize=8;curved=1;exitX=0.5;exitY=0;exitDx=0;exitDy=0;entryX=0.5;entryY=1;entryDx=0;entryDy=0;strokeColor=light-dark(#000000,#000000);fontStyle=1" edge="1" parent="1" source="x1qT8_1FQU6NpwxY2eX7-160" target="x1qT8_1FQU6NpwxY2eX7-22">
          <mxGeometry width="50" height="50" relative="1" as="geometry">
            <mxPoint x="62.5" y="25" as="sourcePoint" />
            <mxPoint x="87.5" y="45" as="targetPoint" />
          </mxGeometry>
        </mxCell>
        <mxCell id="x1qT8_1FQU6NpwxY2eX7-100" value="" style="endArrow=none;html=1;rounded=0;fontSize=12;startSize=8;endSize=8;curved=1;exitX=0.5;exitY=1;exitDx=0;exitDy=0;entryX=0.5;entryY=0;entryDx=0;entryDy=0;strokeColor=light-dark(#000000,#000000);fontStyle=1" edge="1" parent="1" source="x1qT8_1FQU6NpwxY2eX7-19" target="x1qT8_1FQU6NpwxY2eX7-160">
          <mxGeometry width="50" height="50" relative="1" as="geometry">
            <mxPoint x="42.5" y="-5" as="sourcePoint" />
            <mxPoint x="62.5" y="25" as="targetPoint" />
          </mxGeometry>
        </mxCell>
        <mxCell id="x1qT8_1FQU6NpwxY2eX7-101" value="" style="endArrow=none;html=1;rounded=0;fontSize=12;startSize=8;endSize=8;curved=1;entryX=0.5;entryY=1;entryDx=0;entryDy=0;exitX=0.5;exitY=0;exitDx=0;exitDy=0;strokeColor=light-dark(#000000,#000000);fontStyle=1" edge="1" parent="1" source="x1qT8_1FQU6NpwxY2eX7-160" target="x1qT8_1FQU6NpwxY2eX7-23">
          <mxGeometry width="50" height="50" relative="1" as="geometry">
            <mxPoint x="62.5" y="25" as="sourcePoint" />
            <mxPoint x="382.5" y="105" as="targetPoint" />
          </mxGeometry>
        </mxCell>
        <mxCell id="x1qT8_1FQU6NpwxY2eX7-102" value="" style="endArrow=none;html=1;rounded=0;fontSize=12;startSize=8;endSize=8;curved=1;entryX=0.5;entryY=1;entryDx=0;entryDy=0;exitX=0.5;exitY=0;exitDx=0;exitDy=0;strokeColor=light-dark(#000000,#000000);fontStyle=1" edge="1" parent="1" source="x1qT8_1FQU6NpwxY2eX7-37" target="x1qT8_1FQU6NpwxY2eX7-36">
          <mxGeometry width="50" height="50" relative="1" as="geometry">
            <mxPoint x="230" y="710" as="sourcePoint" />
            <mxPoint x="280" y="660" as="targetPoint" />
          </mxGeometry>
        </mxCell>
        <mxCell id="x1qT8_1FQU6NpwxY2eX7-103" value="" style="endArrow=none;html=1;rounded=0;fontSize=12;startSize=8;endSize=8;curved=1;entryX=0.5;entryY=1;entryDx=0;entryDy=0;exitX=0.5;exitY=0;exitDx=0;exitDy=0;strokeColor=light-dark(#000000,#000000);fontStyle=1" edge="1" parent="1" source="x1qT8_1FQU6NpwxY2eX7-38" target="x1qT8_1FQU6NpwxY2eX7-36">
          <mxGeometry width="50" height="50" relative="1" as="geometry">
            <mxPoint x="-90" y="641" as="sourcePoint" />
            <mxPoint x="90" y="600" as="targetPoint" />
          </mxGeometry>
        </mxCell>
        <mxCell id="x1qT8_1FQU6NpwxY2eX7-104" value="" style="endArrow=none;html=1;rounded=0;fontSize=12;startSize=8;endSize=8;curved=1;entryX=0.5;entryY=1;entryDx=0;entryDy=0;exitX=0.5;exitY=0;exitDx=0;exitDy=0;strokeColor=light-dark(#000000,#000000);fontStyle=1" edge="1" parent="1" source="x1qT8_1FQU6NpwxY2eX7-39" target="x1qT8_1FQU6NpwxY2eX7-36">
          <mxGeometry width="50" height="50" relative="1" as="geometry">
            <mxPoint x="80" y="771" as="sourcePoint" />
            <mxPoint x="260" y="730" as="targetPoint" />
          </mxGeometry>
        </mxCell>
        <mxCell id="x1qT8_1FQU6NpwxY2eX7-105" value="" style="endArrow=none;html=1;rounded=0;fontSize=12;startSize=8;endSize=8;curved=1;entryX=0.5;entryY=1;entryDx=0;entryDy=0;exitX=0.5;exitY=0;exitDx=0;exitDy=0;strokeColor=light-dark(#000000,#000000);fontStyle=1" edge="1" parent="1" source="x1qT8_1FQU6NpwxY2eX7-40" target="x1qT8_1FQU6NpwxY2eX7-36">
          <mxGeometry width="50" height="50" relative="1" as="geometry">
            <mxPoint x="110" y="621" as="sourcePoint" />
            <mxPoint x="290" y="580" as="targetPoint" />
          </mxGeometry>
        </mxCell>
        <mxCell id="x1qT8_1FQU6NpwxY2eX7-106" value="" style="endArrow=none;html=1;rounded=0;fontSize=12;startSize=8;endSize=8;curved=1;entryX=0.5;entryY=1;entryDx=0;entryDy=0;exitX=0.5;exitY=0;exitDx=0;exitDy=0;strokeColor=light-dark(#000000,#000000);fontStyle=1" edge="1" parent="1" source="x1qT8_1FQU6NpwxY2eX7-47" target="x1qT8_1FQU6NpwxY2eX7-36">
          <mxGeometry width="50" height="50" relative="1" as="geometry">
            <mxPoint x="210" y="611" as="sourcePoint" />
            <mxPoint x="390" y="570" as="targetPoint" />
          </mxGeometry>
        </mxCell>
        <mxCell id="x1qT8_1FQU6NpwxY2eX7-107" value="" style="endArrow=none;html=1;rounded=0;fontSize=12;startSize=8;endSize=8;curved=1;entryX=0.5;entryY=1;entryDx=0;entryDy=0;exitX=0.5;exitY=0;exitDx=0;exitDy=0;strokeColor=light-dark(#000000,#000000);fontStyle=1" edge="1" parent="1" source="x1qT8_1FQU6NpwxY2eX7-7" target="x1qT8_1FQU6NpwxY2eX7-41">
          <mxGeometry width="50" height="50" relative="1" as="geometry">
            <mxPoint x="230" y="370" as="sourcePoint" />
            <mxPoint x="280" y="320" as="targetPoint" />
          </mxGeometry>
        </mxCell>
        <mxCell id="x1qT8_1FQU6NpwxY2eX7-108" value="" style="endArrow=none;html=1;rounded=0;fontSize=12;startSize=8;endSize=8;curved=1;entryX=0.5;entryY=1;entryDx=0;entryDy=0;exitX=0.5;exitY=0;exitDx=0;exitDy=0;strokeColor=light-dark(#000000,#000000);fontStyle=1" edge="1" parent="1" source="x1qT8_1FQU6NpwxY2eX7-8" target="x1qT8_1FQU6NpwxY2eX7-41">
          <mxGeometry width="50" height="50" relative="1" as="geometry">
            <mxPoint x="230" y="420" as="sourcePoint" />
            <mxPoint x="409" y="380" as="targetPoint" />
          </mxGeometry>
        </mxCell>
        <mxCell id="x1qT8_1FQU6NpwxY2eX7-109" value="" style="endArrow=none;html=1;rounded=0;fontSize=12;startSize=8;endSize=8;curved=1;exitX=0.5;exitY=0;exitDx=0;exitDy=0;entryX=0.5;entryY=1;entryDx=0;entryDy=0;strokeColor=light-dark(#000000,#000000);fontStyle=1" edge="1" parent="1" source="x1qT8_1FQU6NpwxY2eX7-9" target="x1qT8_1FQU6NpwxY2eX7-41">
          <mxGeometry width="50" height="50" relative="1" as="geometry">
            <mxPoint x="380" y="420" as="sourcePoint" />
            <mxPoint x="559" y="380" as="targetPoint" />
          </mxGeometry>
        </mxCell>
        <mxCell id="x1qT8_1FQU6NpwxY2eX7-110" value="" style="endArrow=none;html=1;rounded=0;fontSize=12;startSize=8;endSize=8;curved=1;entryX=0.5;entryY=1;entryDx=0;entryDy=0;exitX=0.5;exitY=0;exitDx=0;exitDy=0;strokeColor=light-dark(#000000,#000000);fontStyle=1" edge="1" parent="1" source="x1qT8_1FQU6NpwxY2eX7-10" target="x1qT8_1FQU6NpwxY2eX7-41">
          <mxGeometry width="50" height="50" relative="1" as="geometry">
            <mxPoint x="470" y="430" as="sourcePoint" />
            <mxPoint x="649" y="390" as="targetPoint" />
          </mxGeometry>
        </mxCell>
        <mxCell id="x1qT8_1FQU6NpwxY2eX7-111" value="" style="endArrow=none;html=1;rounded=0;fontSize=12;startSize=8;endSize=8;curved=1;entryX=0.5;entryY=0;entryDx=0;entryDy=0;exitX=0.5;exitY=1;exitDx=0;exitDy=0;strokeColor=light-dark(#000000,#000000);fontStyle=1" edge="1" parent="1" source="x1qT8_1FQU6NpwxY2eX7-41" target="x1qT8_1FQU6NpwxY2eX7-11">
          <mxGeometry width="50" height="50" relative="1" as="geometry">
            <mxPoint x="530" y="410" as="sourcePoint" />
            <mxPoint x="709" y="370" as="targetPoint" />
          </mxGeometry>
        </mxCell>
        <mxCell id="x1qT8_1FQU6NpwxY2eX7-112" value="" style="endArrow=none;html=1;rounded=0;fontSize=12;startSize=8;endSize=8;curved=1;entryX=0.5;entryY=1;entryDx=0;entryDy=0;exitX=0.5;exitY=0;exitDx=0;exitDy=0;strokeColor=light-dark(#000000,#000000);fontStyle=1" edge="1" parent="1" source="x1qT8_1FQU6NpwxY2eX7-2" target="x1qT8_1FQU6NpwxY2eX7-1">
          <mxGeometry width="50" height="50" relative="1" as="geometry">
            <mxPoint x="750" y="370" as="sourcePoint" />
            <mxPoint x="800" y="320" as="targetPoint" />
          </mxGeometry>
        </mxCell>
        <mxCell id="x1qT8_1FQU6NpwxY2eX7-113" value="" style="endArrow=none;html=1;rounded=0;fontSize=12;startSize=8;endSize=8;curved=1;exitX=0.5;exitY=0;exitDx=0;exitDy=0;entryX=0.5;entryY=1;entryDx=0;entryDy=0;strokeColor=light-dark(#000000,#000000);fontStyle=1" edge="1" parent="1" source="x1qT8_1FQU6NpwxY2eX7-3" target="x1qT8_1FQU6NpwxY2eX7-1">
          <mxGeometry width="50" height="50" relative="1" as="geometry">
            <mxPoint x="930" y="420" as="sourcePoint" />
            <mxPoint x="950" y="350" as="targetPoint" />
          </mxGeometry>
        </mxCell>
        <mxCell id="x1qT8_1FQU6NpwxY2eX7-114" value="" style="endArrow=none;html=1;rounded=0;fontSize=12;startSize=8;endSize=8;curved=1;entryX=0.5;entryY=1;entryDx=0;entryDy=0;strokeColor=light-dark(#000000,#000000);fontStyle=1" edge="1" parent="1" source="x1qT8_1FQU6NpwxY2eX7-4" target="x1qT8_1FQU6NpwxY2eX7-1">
          <mxGeometry width="50" height="50" relative="1" as="geometry">
            <mxPoint x="1040" y="410" as="sourcePoint" />
            <mxPoint x="1219" y="370" as="targetPoint" />
          </mxGeometry>
        </mxCell>
        <mxCell id="x1qT8_1FQU6NpwxY2eX7-115" value="" style="endArrow=none;html=1;rounded=0;fontSize=12;startSize=8;endSize=8;curved=1;entryX=0.5;entryY=1;entryDx=0;entryDy=0;exitX=0.5;exitY=0;exitDx=0;exitDy=0;strokeColor=light-dark(#000000,#000000);fontStyle=1" edge="1" parent="1" source="x1qT8_1FQU6NpwxY2eX7-5" target="x1qT8_1FQU6NpwxY2eX7-1">
          <mxGeometry width="50" height="50" relative="1" as="geometry">
            <mxPoint x="1000" y="410" as="sourcePoint" />
            <mxPoint x="1179" y="370" as="targetPoint" />
          </mxGeometry>
        </mxCell>
        <mxCell id="x1qT8_1FQU6NpwxY2eX7-116" value="" style="endArrow=none;html=1;rounded=0;fontSize=12;startSize=8;endSize=8;curved=1;entryX=0.5;entryY=0;entryDx=0;entryDy=0;exitX=0.5;exitY=1;exitDx=0;exitDy=0;strokeColor=light-dark(#000000,#000000);fontStyle=1" edge="1" parent="1" source="x1qT8_1FQU6NpwxY2eX7-1" target="x1qT8_1FQU6NpwxY2eX7-6">
          <mxGeometry width="50" height="50" relative="1" as="geometry">
            <mxPoint x="1120" y="350" as="sourcePoint" />
            <mxPoint x="1299" y="310" as="targetPoint" />
          </mxGeometry>
        </mxCell>
        <mxCell id="x1qT8_1FQU6NpwxY2eX7-117" value="" style="endArrow=none;html=1;rounded=0;fontSize=12;startSize=8;endSize=8;curved=1;entryX=0;entryY=0.5;entryDx=0;entryDy=0;exitX=1;exitY=0.5;exitDx=0;exitDy=0;strokeColor=light-dark(#000000,#000000);fontStyle=1" edge="1" parent="1" source="x1qT8_1FQU6NpwxY2eX7-24" target="x1qT8_1FQU6NpwxY2eX7-25">
          <mxGeometry width="50" height="50" relative="1" as="geometry">
            <mxPoint x="1741.25" y="615" as="sourcePoint" />
            <mxPoint x="1920.25" y="575" as="targetPoint" />
          </mxGeometry>
        </mxCell>
        <mxCell id="x1qT8_1FQU6NpwxY2eX7-118" value="" style="endArrow=none;html=1;rounded=0;fontSize=12;startSize=8;endSize=8;curved=1;entryX=0;entryY=0.5;entryDx=0;entryDy=0;exitX=1;exitY=0.5;exitDx=0;exitDy=0;strokeColor=light-dark(#000000,#000000);fontStyle=1" edge="1" parent="1" source="x1qT8_1FQU6NpwxY2eX7-24" target="x1qT8_1FQU6NpwxY2eX7-27">
          <mxGeometry width="50" height="50" relative="1" as="geometry">
            <mxPoint x="1611.25" y="505" as="sourcePoint" />
            <mxPoint x="1790.25" y="465" as="targetPoint" />
          </mxGeometry>
        </mxCell>
        <mxCell id="x1qT8_1FQU6NpwxY2eX7-119" value="" style="endArrow=none;html=1;rounded=0;fontSize=12;startSize=8;endSize=8;curved=1;entryX=0;entryY=0.5;entryDx=0;entryDy=0;exitX=1;exitY=0.5;exitDx=0;exitDy=0;strokeColor=light-dark(#000000,#000000);fontStyle=1" edge="1" parent="1" source="x1qT8_1FQU6NpwxY2eX7-24" target="x1qT8_1FQU6NpwxY2eX7-29">
          <mxGeometry width="50" height="50" relative="1" as="geometry">
            <mxPoint x="1431.25" y="595" as="sourcePoint" />
            <mxPoint x="1610.25" y="555" as="targetPoint" />
          </mxGeometry>
        </mxCell>
        <mxCell id="x1qT8_1FQU6NpwxY2eX7-120" value="" style="endArrow=none;html=1;rounded=0;fontSize=12;startSize=8;endSize=8;curved=1;entryX=0;entryY=0.5;entryDx=0;entryDy=0;exitX=1;exitY=0.5;exitDx=0;exitDy=0;strokeColor=light-dark(#000000,#000000);fontStyle=1" edge="1" parent="1" source="x1qT8_1FQU6NpwxY2eX7-24" target="x1qT8_1FQU6NpwxY2eX7-28">
          <mxGeometry width="50" height="50" relative="1" as="geometry">
            <mxPoint x="1461.25" y="625" as="sourcePoint" />
            <mxPoint x="1640.25" y="585" as="targetPoint" />
          </mxGeometry>
        </mxCell>
        <mxCell id="x1qT8_1FQU6NpwxY2eX7-121" value="" style="endArrow=none;html=1;rounded=0;fontSize=12;startSize=8;endSize=8;curved=1;entryX=0;entryY=0.5;entryDx=0;entryDy=0;exitX=1;exitY=0.5;exitDx=0;exitDy=0;strokeColor=light-dark(#000000,#000000);fontStyle=1" edge="1" parent="1" source="x1qT8_1FQU6NpwxY2eX7-24" target="x1qT8_1FQU6NpwxY2eX7-26">
          <mxGeometry width="50" height="50" relative="1" as="geometry">
            <mxPoint x="1461.25" y="675" as="sourcePoint" />
            <mxPoint x="1640.25" y="635" as="targetPoint" />
          </mxGeometry>
        </mxCell>
        <mxCell id="x1qT8_1FQU6NpwxY2eX7-122" value="" style="endArrow=none;html=1;rounded=0;fontSize=12;startSize=8;endSize=8;curved=1;entryX=0.5;entryY=1;entryDx=0;entryDy=0;exitX=0.5;exitY=0;exitDx=0;exitDy=0;strokeColor=light-dark(#000000,#000000);fontStyle=1" edge="1" parent="1" source="x1qT8_1FQU6NpwxY2eX7-31" target="x1qT8_1FQU6NpwxY2eX7-30">
          <mxGeometry width="50" height="50" relative="1" as="geometry">
            <mxPoint x="1040" y="1055" as="sourcePoint" />
            <mxPoint x="1491.25" y="945" as="targetPoint" />
          </mxGeometry>
        </mxCell>
        <mxCell id="x1qT8_1FQU6NpwxY2eX7-123" value="" style="endArrow=none;html=1;rounded=0;fontSize=12;startSize=8;endSize=8;curved=1;entryX=0.5;entryY=1;entryDx=0;entryDy=0;exitX=0.5;exitY=0;exitDx=0;exitDy=0;strokeColor=light-dark(#000000,#000000);fontStyle=1" edge="1" parent="1" source="x1qT8_1FQU6NpwxY2eX7-35" target="x1qT8_1FQU6NpwxY2eX7-30">
          <mxGeometry width="50" height="50" relative="1" as="geometry">
            <mxPoint x="1051.25" y="1025" as="sourcePoint" />
            <mxPoint x="1230.25" y="985" as="targetPoint" />
          </mxGeometry>
        </mxCell>
        <mxCell id="x1qT8_1FQU6NpwxY2eX7-124" value="" style="endArrow=none;html=1;rounded=0;fontSize=12;startSize=8;endSize=8;curved=1;entryX=0.5;entryY=1;entryDx=0;entryDy=0;exitX=0.5;exitY=0;exitDx=0;exitDy=0;strokeColor=light-dark(#000000,#000000);fontStyle=1" edge="1" parent="1" source="x1qT8_1FQU6NpwxY2eX7-49" target="x1qT8_1FQU6NpwxY2eX7-30">
          <mxGeometry width="50" height="50" relative="1" as="geometry">
            <mxPoint x="1051.25" y="1025" as="sourcePoint" />
            <mxPoint x="1230.25" y="985" as="targetPoint" />
          </mxGeometry>
        </mxCell>
        <mxCell id="x1qT8_1FQU6NpwxY2eX7-125" value="" style="endArrow=none;html=1;rounded=0;fontSize=12;startSize=8;endSize=8;curved=1;entryX=0.5;entryY=1;entryDx=0;entryDy=0;exitX=0.5;exitY=0;exitDx=0;exitDy=0;strokeColor=light-dark(#000000,#000000);fontStyle=1" edge="1" parent="1" source="x1qT8_1FQU6NpwxY2eX7-32" target="x1qT8_1FQU6NpwxY2eX7-30">
          <mxGeometry width="50" height="50" relative="1" as="geometry">
            <mxPoint x="1051.25" y="1025" as="sourcePoint" />
            <mxPoint x="1230.25" y="985" as="targetPoint" />
          </mxGeometry>
        </mxCell>
        <mxCell id="x1qT8_1FQU6NpwxY2eX7-126" value="" style="endArrow=none;html=1;rounded=0;fontSize=12;startSize=8;endSize=8;curved=1;entryX=0.5;entryY=1;entryDx=0;entryDy=0;exitX=0.5;exitY=0;exitDx=0;exitDy=0;strokeColor=light-dark(#000000,#000000);fontStyle=1" edge="1" parent="1" source="x1qT8_1FQU6NpwxY2eX7-34" target="x1qT8_1FQU6NpwxY2eX7-30">
          <mxGeometry width="50" height="50" relative="1" as="geometry">
            <mxPoint x="1051.25" y="1025" as="sourcePoint" />
            <mxPoint x="1230.25" y="985" as="targetPoint" />
          </mxGeometry>
        </mxCell>
        <mxCell id="x1qT8_1FQU6NpwxY2eX7-127" value="" style="endArrow=none;html=1;rounded=0;fontSize=12;startSize=8;endSize=8;curved=1;entryX=0.5;entryY=1;entryDx=0;entryDy=0;exitX=0.5;exitY=0;exitDx=0;exitDy=0;strokeColor=light-dark(#000000,#000000);fontStyle=1" edge="1" parent="1" source="x1qT8_1FQU6NpwxY2eX7-48" target="x1qT8_1FQU6NpwxY2eX7-30">
          <mxGeometry width="50" height="50" relative="1" as="geometry">
            <mxPoint x="1051.25" y="1025" as="sourcePoint" />
            <mxPoint x="1230.25" y="985" as="targetPoint" />
          </mxGeometry>
        </mxCell>
        <mxCell id="x1qT8_1FQU6NpwxY2eX7-128" value="" style="endArrow=none;html=1;rounded=0;fontSize=12;startSize=8;endSize=8;curved=1;entryX=0.5;entryY=1;entryDx=0;entryDy=0;exitX=0.5;exitY=0;exitDx=0;exitDy=0;strokeColor=light-dark(#000000,#000000);fontStyle=1" edge="1" parent="1" source="x1qT8_1FQU6NpwxY2eX7-33" target="x1qT8_1FQU6NpwxY2eX7-30">
          <mxGeometry width="50" height="50" relative="1" as="geometry">
            <mxPoint x="1051.25" y="1025" as="sourcePoint" />
            <mxPoint x="1230.25" y="985" as="targetPoint" />
          </mxGeometry>
        </mxCell>
        <mxCell id="x1qT8_1FQU6NpwxY2eX7-129" value="" style="endArrow=none;html=1;rounded=0;fontSize=12;startSize=8;endSize=8;curved=1;entryX=0.5;entryY=0;entryDx=0;entryDy=0;exitX=0.5;exitY=1;exitDx=0;exitDy=0;strokeColor=light-dark(#000000,#000000);fontStyle=1" edge="1" parent="1" source="x1qT8_1FQU6NpwxY2eX7-30" target="x1qT8_1FQU6NpwxY2eX7-144">
          <mxGeometry width="50" height="50" relative="1" as="geometry">
            <mxPoint x="1611.25" y="1025" as="sourcePoint" />
            <mxPoint x="1670.5" y="1055" as="targetPoint" />
          </mxGeometry>
        </mxCell>
        <mxCell id="x1qT8_1FQU6NpwxY2eX7-130" value="" style="endArrow=none;html=1;rounded=0;fontSize=12;startSize=8;endSize=8;curved=1;exitX=0.5;exitY=1;exitDx=0;exitDy=0;entryX=0.5;entryY=0;entryDx=0;entryDy=0;strokeColor=light-dark(#000000,#000000);fontStyle=1" edge="1" parent="1" source="x1qT8_1FQU6NpwxY2eX7-13" target="x1qT8_1FQU6NpwxY2eX7-12">
          <mxGeometry width="50" height="50" relative="1" as="geometry">
            <mxPoint x="1511.25" y="265" as="sourcePoint" />
            <mxPoint x="1361.25" y="135" as="targetPoint" />
          </mxGeometry>
        </mxCell>
        <mxCell id="x1qT8_1FQU6NpwxY2eX7-131" value="" style="endArrow=none;html=1;rounded=0;fontSize=12;startSize=8;endSize=8;curved=1;entryX=0.5;entryY=0;entryDx=0;entryDy=0;exitX=0.5;exitY=1;exitDx=0;exitDy=0;strokeColor=light-dark(#000000,#000000);fontStyle=1" edge="1" parent="1" source="x1qT8_1FQU6NpwxY2eX7-15" target="x1qT8_1FQU6NpwxY2eX7-12">
          <mxGeometry width="50" height="50" relative="1" as="geometry">
            <mxPoint x="1541.25" y="255" as="sourcePoint" />
            <mxPoint x="1720.25" y="215" as="targetPoint" />
          </mxGeometry>
        </mxCell>
        <mxCell id="x1qT8_1FQU6NpwxY2eX7-132" value="" style="endArrow=none;html=1;rounded=0;fontSize=12;startSize=8;endSize=8;curved=1;entryX=0.5;entryY=0;entryDx=0;entryDy=0;exitX=0.5;exitY=1;exitDx=0;exitDy=0;strokeColor=light-dark(#000000,#000000);fontStyle=1" edge="1" parent="1" source="x1qT8_1FQU6NpwxY2eX7-14" target="x1qT8_1FQU6NpwxY2eX7-12">
          <mxGeometry width="50" height="50" relative="1" as="geometry">
            <mxPoint x="1541.25" y="245" as="sourcePoint" />
            <mxPoint x="1720.25" y="205" as="targetPoint" />
          </mxGeometry>
        </mxCell>
        <mxCell id="x1qT8_1FQU6NpwxY2eX7-133" value="" style="endArrow=none;html=1;rounded=0;fontSize=12;startSize=8;endSize=8;curved=1;entryX=0.5;entryY=1;entryDx=0;entryDy=0;exitX=0.5;exitY=0;exitDx=0;exitDy=0;strokeColor=light-dark(#000000,#000000);fontStyle=1" edge="1" parent="1" source="x1qT8_1FQU6NpwxY2eX7-12" target="x1qT8_1FQU6NpwxY2eX7-16">
          <mxGeometry width="50" height="50" relative="1" as="geometry">
            <mxPoint x="1541.25" y="235" as="sourcePoint" />
            <mxPoint x="1720.25" y="195" as="targetPoint" />
          </mxGeometry>
        </mxCell>
        <mxCell id="x1qT8_1FQU6NpwxY2eX7-134" value="" style="endArrow=none;html=1;rounded=0;fontSize=12;startSize=8;endSize=8;curved=1;entryX=0.5;entryY=1;entryDx=0;entryDy=0;exitX=0.5;exitY=0;exitDx=0;exitDy=0;strokeColor=light-dark(#000000,#000000);fontStyle=1" edge="1" parent="1" source="x1qT8_1FQU6NpwxY2eX7-12" target="x1qT8_1FQU6NpwxY2eX7-17">
          <mxGeometry width="50" height="50" relative="1" as="geometry">
            <mxPoint x="1571.25" y="255" as="sourcePoint" />
            <mxPoint x="1750.25" y="215" as="targetPoint" />
          </mxGeometry>
        </mxCell>
        <mxCell id="x1qT8_1FQU6NpwxY2eX7-135" value="" style="endArrow=none;html=1;rounded=0;fontSize=12;startSize=8;endSize=8;curved=1;entryX=0.5;entryY=1;entryDx=0;entryDy=0;exitX=0.5;exitY=0;exitDx=0;exitDy=0;strokeColor=light-dark(#000000,#000000);fontStyle=1" edge="1" parent="1" source="x1qT8_1FQU6NpwxY2eX7-60">
          <mxGeometry width="50" height="50" relative="1" as="geometry">
            <mxPoint x="1901.25" y="605" as="sourcePoint" />
            <mxPoint x="1836.25" y="245" as="targetPoint" />
          </mxGeometry>
        </mxCell>
        <mxCell id="x1qT8_1FQU6NpwxY2eX7-136" value="" style="endArrow=none;html=1;rounded=0;fontSize=12;startSize=8;endSize=8;curved=1;entryX=0.5;entryY=1;entryDx=0;entryDy=0;exitX=0.5;exitY=0;exitDx=0;exitDy=0;strokeColor=light-dark(#000000,#000000);fontStyle=1" edge="1" parent="1" source="x1qT8_1FQU6NpwxY2eX7-62">
          <mxGeometry width="50" height="50" relative="1" as="geometry">
            <mxPoint x="1831.25" y="275" as="sourcePoint" />
            <mxPoint x="1836.25" y="245" as="targetPoint" />
          </mxGeometry>
        </mxCell>
        <mxCell id="x1qT8_1FQU6NpwxY2eX7-137" value="" style="endArrow=none;html=1;rounded=0;fontSize=12;startSize=8;endSize=8;curved=1;entryX=0.5;entryY=1;entryDx=0;entryDy=0;exitX=0.5;exitY=0;exitDx=0;exitDy=0;strokeColor=light-dark(#000000,#000000);fontStyle=1" edge="1" parent="1" source="x1qT8_1FQU6NpwxY2eX7-61">
          <mxGeometry width="50" height="50" relative="1" as="geometry">
            <mxPoint x="1831.25" y="305" as="sourcePoint" />
            <mxPoint x="1836.25" y="245" as="targetPoint" />
          </mxGeometry>
        </mxCell>
        <mxCell id="x1qT8_1FQU6NpwxY2eX7-138" value="" style="endArrow=none;html=1;rounded=0;fontSize=12;startSize=8;endSize=8;curved=1;entryX=0.5;entryY=1;entryDx=0;entryDy=0;exitX=0.5;exitY=0;exitDx=0;exitDy=0;strokeColor=light-dark(#000000,#000000);fontStyle=1" edge="1" parent="1" source="x1qT8_1FQU6NpwxY2eX7-63">
          <mxGeometry width="50" height="50" relative="1" as="geometry">
            <mxPoint x="2021.25" y="285" as="sourcePoint" />
            <mxPoint x="1836.25" y="245" as="targetPoint" />
          </mxGeometry>
        </mxCell>
        <mxCell id="x1qT8_1FQU6NpwxY2eX7-139" value="" style="endArrow=none;html=1;rounded=0;fontSize=12;startSize=8;endSize=8;curved=1;entryX=0.5;entryY=1;entryDx=0;entryDy=0;exitX=0.5;exitY=0;exitDx=0;exitDy=0;strokeColor=light-dark(#000000,#000000);fontStyle=1" edge="1" parent="1" source="x1qT8_1FQU6NpwxY2eX7-64">
          <mxGeometry width="50" height="50" relative="1" as="geometry">
            <mxPoint x="2031.25" y="285" as="sourcePoint" />
            <mxPoint x="1836.25" y="245" as="targetPoint" />
          </mxGeometry>
        </mxCell>
        <mxCell id="x1qT8_1FQU6NpwxY2eX7-140" value="" style="endArrow=none;html=1;rounded=0;fontSize=12;startSize=8;endSize=8;curved=1;entryX=0.5;entryY=0;entryDx=0;entryDy=0;strokeColor=light-dark(#000000,#000000);exitX=1;exitY=1;exitDx=0;exitDy=0;fontStyle=1" edge="1" parent="1" source="x1qT8_1FQU6NpwxY2eX7-142" target="x1qT8_1FQU6NpwxY2eX7-19">
          <mxGeometry width="50" height="50" relative="1" as="geometry">
            <mxPoint x="65" y="-165" as="sourcePoint" />
            <mxPoint x="450" y="-15" as="targetPoint" />
          </mxGeometry>
        </mxCell>
        <mxCell id="x1qT8_1FQU6NpwxY2eX7-141" value="" style="endArrow=none;html=1;rounded=0;fontSize=12;startSize=8;endSize=8;curved=1;exitX=0.5;exitY=0;exitDx=0;exitDy=0;strokeColor=light-dark(#000000,#000000);entryX=0;entryY=1;entryDx=0;entryDy=0;fontStyle=1" edge="1" parent="1" source="x1qT8_1FQU6NpwxY2eX7-19" target="x1qT8_1FQU6NpwxY2eX7-143">
          <mxGeometry width="50" height="50" relative="1" as="geometry">
            <mxPoint x="135" y="-115" as="sourcePoint" />
            <mxPoint x="135" y="-165" as="targetPoint" />
          </mxGeometry>
        </mxCell>
        <mxCell id="x1qT8_1FQU6NpwxY2eX7-142" value="fecha_inicio" style="ellipse;whiteSpace=wrap;html=1;aspect=fixed;labelBackgroundColor=light-dark(#FF99FF,#FF99FF);fillColor=light-dark(#FF99FF,#FF99FF);fontColor=light-dark(#000000,#000000);gradientColor=none;strokeColor=light-dark(#000000,#000000);fontStyle=1" vertex="1" parent="1">
          <mxGeometry x="-5" y="-235" width="90" height="90" as="geometry" />
        </mxCell>
        <mxCell id="x1qT8_1FQU6NpwxY2eX7-143" value="fecha_fin" style="ellipse;whiteSpace=wrap;html=1;aspect=fixed;labelBackgroundColor=light-dark(#FF99FF,#FF99FF);fillColor=light-dark(#FF99FF,#FF99FF);fontColor=light-dark(#000000,#000000);gradientColor=none;strokeColor=light-dark(#000000,#000000);fontStyle=1" vertex="1" parent="1">
          <mxGeometry x="115" y="-235" width="90" height="90" as="geometry" />
        </mxCell>
        <mxCell id="x1qT8_1FQU6NpwxY2eX7-144" value="bono_mensual" style="ellipse;whiteSpace=wrap;html=1;align=center;dashed=1;fillColor=light-dark(#FF99FF,#FF99FF);fontColor=light-dark(#000000,#000000);strokeColor=light-dark(#000000,#000000);fontStyle=1" vertex="1" parent="1">
          <mxGeometry x="1625.5" y="1055" width="90" height="90" as="geometry" />
        </mxCell>
        <mxCell id="x1qT8_1FQU6NpwxY2eX7-145" value="asignado en" style="text;html=1;align=center;verticalAlign=middle;resizable=0;points=[];autosize=1;strokeColor=none;fillColor=none;fontStyle=1" vertex="1" parent="1">
          <mxGeometry x="169" y="290" width="90" height="30" as="geometry" />
        </mxCell>
        <mxCell id="x1qT8_1FQU6NpwxY2eX7-146" value="tiene asignada" style="text;html=1;align=center;verticalAlign=middle;resizable=0;points=[];autosize=1;strokeColor=none;fillColor=none;fontStyle=1" vertex="1" parent="1">
          <mxGeometry x="60" y="420" width="100" height="30" as="geometry" />
        </mxCell>
        <mxCell id="x1qT8_1FQU6NpwxY2eX7-147" value="gestionado por" style="text;html=1;align=center;verticalAlign=middle;resizable=0;points=[];autosize=1;strokeColor=none;fillColor=none;fontStyle=1" vertex="1" parent="1">
          <mxGeometry x="1260.5" y="245" width="100" height="30" as="geometry" />
        </mxCell>
        <mxCell id="x1qT8_1FQU6NpwxY2eX7-148" value="gestiona" style="text;html=1;align=center;verticalAlign=middle;resizable=0;points=[];autosize=1;strokeColor=none;fillColor=none;fontStyle=1" vertex="1" parent="1">
          <mxGeometry x="1290.5" y="420" width="70" height="30" as="geometry" />
        </mxCell>
        <mxCell id="x1qT8_1FQU6NpwxY2eX7-149" value="hecho por" style="text;html=1;align=center;verticalAlign=middle;resizable=0;points=[];autosize=1;strokeColor=none;fillColor=none;fontStyle=1" vertex="1" parent="1">
          <mxGeometry x="1285.5" y="843" width="80" height="30" as="geometry" />
        </mxCell>
        <mxCell id="x1qT8_1FQU6NpwxY2eX7-150" value="hace" style="text;html=1;align=center;verticalAlign=middle;resizable=0;points=[];autosize=1;strokeColor=none;fillColor=none;fontStyle=1" vertex="1" parent="1">
          <mxGeometry x="1310.5" y="630" width="50" height="30" as="geometry" />
        </mxCell>
        <mxCell id="x1qT8_1FQU6NpwxY2eX7-151" value="tiene" style="text;html=1;align=center;verticalAlign=middle;resizable=0;points=[];autosize=1;strokeColor=none;fillColor=none;fontStyle=1" vertex="1" parent="1">
          <mxGeometry x="525" y="288" width="50" height="30" as="geometry" />
        </mxCell>
        <mxCell id="x1qT8_1FQU6NpwxY2eX7-152" value="pertenece" style="text;html=1;align=center;verticalAlign=middle;resizable=0;points=[];autosize=1;strokeColor=none;fillColor=none;fontStyle=1" vertex="1" parent="1">
          <mxGeometry x="760" y="288" width="80" height="30" as="geometry" />
        </mxCell>
        <mxCell id="x1qT8_1FQU6NpwxY2eX7-153" value="asignado a" style="text;html=1;align=center;verticalAlign=middle;resizable=0;points=[];autosize=1;strokeColor=none;fillColor=none;fontStyle=1" vertex="1" parent="1">
          <mxGeometry x="414" y="230" width="80" height="30" as="geometry" />
        </mxCell>
        <mxCell id="x1qT8_1FQU6NpwxY2eX7-154" value="se le asigna" style="text;html=1;align=center;verticalAlign=middle;resizable=0;points=[];autosize=1;strokeColor=none;fillColor=none;fontStyle=1" vertex="1" parent="1">
          <mxGeometry x="710" y="150" width="90" height="30" as="geometry" />
        </mxCell>
        <mxCell id="x1qT8_1FQU6NpwxY2eX7-155" value="N:M" style="text;html=1;align=center;verticalAlign=middle;resizable=0;points=[];autosize=1;strokeColor=none;fillColor=none;fontStyle=1" vertex="1" parent="1">
          <mxGeometry x="-60" y="305" width="50" height="30" as="geometry" />
        </mxCell>
        <mxCell id="x1qT8_1FQU6NpwxY2eX7-156" value="N:M" style="text;html=1;align=center;verticalAlign=middle;resizable=0;points=[];autosize=1;strokeColor=none;fillColor=none;fontStyle=1" vertex="1" parent="1">
          <mxGeometry x="309" y="165" width="50" height="30" as="geometry" />
        </mxCell>
        <mxCell id="x1qT8_1FQU6NpwxY2eX7-157" value="N:M" style="text;html=1;align=center;verticalAlign=middle;resizable=0;points=[];autosize=1;strokeColor=none;fillColor=none;fontStyle=1" vertex="1" parent="1">
          <mxGeometry x="639" y="471.25" width="50" height="30" as="geometry" />
        </mxCell>
        <mxCell id="x1qT8_1FQU6NpwxY2eX7-158" value="1:N" style="text;html=1;align=center;verticalAlign=middle;resizable=0;points=[];autosize=1;strokeColor=none;fillColor=none;fontStyle=1" vertex="1" parent="1">
          <mxGeometry x="1245.25" y="330" width="40" height="30" as="geometry" />
        </mxCell>
        <mxCell id="x1qT8_1FQU6NpwxY2eX7-159" value="1:N" style="text;html=1;align=center;verticalAlign=middle;resizable=0;points=[];autosize=1;strokeColor=none;fillColor=none;fontStyle=1" vertex="1" parent="1">
          <mxGeometry x="1245.25" y="750" width="40" height="30" as="geometry" />
        </mxCell>
        <mxCell id="x1qT8_1FQU6NpwxY2eX7-160" value="PRODUCTIVIDAD_&lt;div&gt;ZONA&lt;/div&gt;" style="shape=process;whiteSpace=wrap;html=1;backgroundOutline=1;fillColor=light-dark(#FF99FF,#FF99FF);fontColor=light-dark(#000000,#000000);strokeColor=light-dark(#000000,#000000);fontStyle=1" vertex="1" parent="1">
          <mxGeometry x="-17.5" y="30" width="145" height="60" as="geometry" />
        </mxCell>
        <mxCell id="x1qT8_1FQU6NpwxY2eX7-161" value="&lt;div&gt;&lt;span&gt;ID&lt;/span&gt;&lt;/div&gt;&lt;div&gt;&lt;br&gt;&lt;/div&gt;se evalua" style="rhombus;whiteSpace=wrap;html=1;fillColor=light-dark(#FFFF99,#FFFF99);fontColor=light-dark(#000000,#000000);strokeColor=light-dark(#000000,#000000);fontStyle=1" vertex="1" parent="1">
          <mxGeometry x="169" y="130" width="130" height="80" as="geometry" />
        </mxCell>
        <mxCell id="x1qT8_1FQU6NpwxY2eX7-162" value="" style="endArrow=none;html=1;rounded=0;entryX=1;entryY=0.5;entryDx=0;entryDy=0;exitX=0;exitY=0;exitDx=0;exitDy=0;strokeColor=light-dark(#000000,#000000);fontStyle=1" edge="1" parent="1" source="x1qT8_1FQU6NpwxY2eX7-161" target="x1qT8_1FQU6NpwxY2eX7-160">
          <mxGeometry width="50" height="50" relative="1" as="geometry">
            <mxPoint x="110" y="140" as="sourcePoint" />
            <mxPoint x="160" y="90" as="targetPoint" />
          </mxGeometry>
        </mxCell>
        <mxCell id="x1qT8_1FQU6NpwxY2eX7-163" value="" style="endArrow=none;html=1;rounded=0;entryX=1;entryY=1;entryDx=0;entryDy=0;exitX=0.25;exitY=0;exitDx=0;exitDy=0;strokeColor=light-dark(#000000,#000000);fontStyle=1" edge="1" parent="1" source="x1qT8_1FQU6NpwxY2eX7-41" target="x1qT8_1FQU6NpwxY2eX7-161">
          <mxGeometry width="50" height="50" relative="1" as="geometry">
            <mxPoint x="110" y="140" as="sourcePoint" />
            <mxPoint x="160" y="90" as="targetPoint" />
          </mxGeometry>
        </mxCell>
        <mxCell id="x1qT8_1FQU6NpwxY2eX7-164" value="0:N" style="text;html=1;align=center;verticalAlign=middle;resizable=0;points=[];autosize=1;strokeColor=none;fillColor=none;fontStyle=1" vertex="1" parent="1">
          <mxGeometry x="130" y="38" width="40" height="30" as="geometry" />
        </mxCell>
        <mxCell id="x1qT8_1FQU6NpwxY2eX7-165" value="1:1" style="text;html=1;align=center;verticalAlign=middle;resizable=0;points=[];autosize=1;strokeColor=none;fillColor=none;fontStyle=1" vertex="1" parent="1">
          <mxGeometry x="320" y="258" width="40" height="30" as="geometry" />
        </mxCell>
        <mxCell id="x1qT8_1FQU6NpwxY2eX7-166" value="&lt;div&gt;&lt;span&gt;ID&lt;/span&gt;&lt;/div&gt;&lt;div&gt;&lt;br&gt;&lt;/div&gt;se evalua" style="rhombus;whiteSpace=wrap;html=1;fillColor=light-dark(#FFFF99,#FFFF99);fontColor=light-dark(#000000,#000000);strokeColor=light-dark(#000000,#000000);fontStyle=1" vertex="1" parent="1">
          <mxGeometry x="1535.5" y="135" width="130" height="80" as="geometry" />
        </mxCell>
        <mxCell id="x1qT8_1FQU6NpwxY2eX7-167" value="" style="endArrow=none;html=1;rounded=0;entryX=1;entryY=0.5;entryDx=0;entryDy=0;exitX=0;exitY=0;exitDx=0;exitDy=0;strokeColor=light-dark(#000000,#000000);fontStyle=1" edge="1" parent="1" source="x1qT8_1FQU6NpwxY2eX7-166" target="x1qT8_1FQU6NpwxY2eX7-12">
          <mxGeometry width="50" height="50" relative="1" as="geometry">
            <mxPoint x="1623.25" y="-165" as="sourcePoint" />
            <mxPoint x="1641.25" y="-245" as="targetPoint" />
          </mxGeometry>
        </mxCell>
        <mxCell id="x1qT8_1FQU6NpwxY2eX7-168" value="" style="endArrow=none;html=1;rounded=0;entryX=1;entryY=1;entryDx=0;entryDy=0;exitX=0;exitY=0.5;exitDx=0;exitDy=0;strokeColor=light-dark(#000000,#070707);fontStyle=1" edge="1" parent="1" target="x1qT8_1FQU6NpwxY2eX7-166">
          <mxGeometry width="50" height="50" relative="1" as="geometry">
            <mxPoint x="1776.25" y="215" as="sourcePoint" />
            <mxPoint x="1673.25" y="-215" as="targetPoint" />
          </mxGeometry>
        </mxCell>
        <mxCell id="x1qT8_1FQU6NpwxY2eX7-169" value="1:1" style="text;html=1;align=center;verticalAlign=middle;resizable=0;points=[];autosize=1;strokeColor=none;fillColor=none;fontStyle=1" vertex="1" parent="1">
          <mxGeometry x="1411.25" y="173" width="40" height="30" as="geometry" />
        </mxCell>
        <mxCell id="x1qT8_1FQU6NpwxY2eX7-170" value="0:N" style="text;html=1;align=center;verticalAlign=middle;resizable=0;points=[];autosize=1;strokeColor=none;fillColor=none;fontStyle=1" vertex="1" parent="1">
          <mxGeometry x="1731.25" y="173" width="40" height="30" as="geometry" />
        </mxCell>
        <mxCell id="x1qT8_1FQU6NpwxY2eX7-172" value="incluye" style="text;html=1;align=center;verticalAlign=middle;resizable=0;points=[];autosize=1;strokeColor=none;fillColor=none;fontSize=16;" vertex="1" parent="1">
          <mxGeometry x="349" y="511" width="70" height="30" as="geometry" />
        </mxCell>
        <mxCell id="x1qT8_1FQU6NpwxY2eX7-173" value="incluido" style="text;html=1;align=center;verticalAlign=middle;resizable=0;points=[];autosize=1;strokeColor=none;fillColor=none;fontSize=16;" vertex="1" parent="1">
          <mxGeometry x="1014" y="501" width="80" height="30" as="geometry" />
        </mxCell>
        <mxCell id="x1qT8_1FQU6NpwxY2eX7-175" value="PRODUCTIVIDAD_&lt;div&gt;EMPLEADO&lt;/div&gt;" style="shape=process;whiteSpace=wrap;html=1;backgroundOutline=1;fillColor=light-dark(#FF99FF,#FF99FF);fontColor=light-dark(#000000,#000000);strokeColor=light-dark(#000000,#000000);fontStyle=1" vertex="1" parent="1">
          <mxGeometry x="1763.75" y="185" width="145" height="60" as="geometry" />
        </mxCell>
        <mxCell id="x1qT8_1FQU6NpwxY2eX7-178" value="" style="endArrow=none;html=1;rounded=0;fontSize=12;startSize=8;endSize=8;curved=1;exitX=0.5;exitY=1;exitDx=0;exitDy=0;strokeColor=light-dark(#000000,#000000);entryX=0.5;entryY=0;entryDx=0;entryDy=0;fontStyle=1" edge="1" parent="1" target="x1qT8_1FQU6NpwxY2eX7-180" source="x1qT8_1FQU6NpwxY2eX7-61">
          <mxGeometry width="50" height="50" relative="1" as="geometry">
            <mxPoint x="1845" y="615" as="sourcePoint" />
            <mxPoint x="1880" y="565" as="targetPoint" />
          </mxGeometry>
        </mxCell>
        <mxCell id="x1qT8_1FQU6NpwxY2eX7-179" value="fecha_inicio" style="ellipse;whiteSpace=wrap;html=1;aspect=fixed;labelBackgroundColor=light-dark(#FF99FF,#FF99FF);fillColor=light-dark(#FF99FF,#FF99FF);fontColor=light-dark(#000000,#000000);gradientColor=none;strokeColor=light-dark(#000000,#000000);fontStyle=1" vertex="1" parent="1">
          <mxGeometry x="1731.25" y="420" width="90" height="90" as="geometry" />
        </mxCell>
        <mxCell id="x1qT8_1FQU6NpwxY2eX7-180" value="fecha_fin" style="ellipse;whiteSpace=wrap;html=1;aspect=fixed;labelBackgroundColor=light-dark(#FF99FF,#FF99FF);fillColor=light-dark(#FF99FF,#FF99FF);fontColor=light-dark(#000000,#000000);gradientColor=none;strokeColor=light-dark(#000000,#000000);fontStyle=1" vertex="1" parent="1">
          <mxGeometry x="1851.25" y="420" width="90" height="90" as="geometry" />
        </mxCell>
        <mxCell id="x1qT8_1FQU6NpwxY2eX7-181" value="" style="endArrow=none;html=1;rounded=0;fontSize=12;startSize=8;endSize=8;curved=1;exitX=0.5;exitY=1;exitDx=0;exitDy=0;strokeColor=light-dark(#000000,#000000);entryX=0.5;entryY=0;entryDx=0;entryDy=0;fontStyle=1" edge="1" parent="1" source="x1qT8_1FQU6NpwxY2eX7-61" target="x1qT8_1FQU6NpwxY2eX7-179">
          <mxGeometry width="50" height="50" relative="1" as="geometry">
            <mxPoint x="1880" y="460" as="sourcePoint" />
            <mxPoint x="1949" y="580" as="targetPoint" />
          </mxGeometry>
        </mxCell>
      </root>
    </mxGraphModel>
  </diagram>
</mxfile>
